<svg xmlns="http://www.w3.org/2000/svg" width="86" height="30" viewBox="590 13 86 30" role="img" aria-label="My role"><title>My role</title><path fill="#C49A23" transform="translate(595.233 33)" d="M1.65234375 -13.1220703125H5.958984375L8.947265625 -6.099609375L11.953125 -13.1220703125H16.2509765625V0.0H13.0517578125V-9.59765625L10.0283203125 -2.5224609375H7.8837890625L4.8603515625 -9.59765625V0.0H1.65234375ZM18.1318359375 -9.84375H21.2783203125L23.923828125 -3.1640625L26.173828125 -9.84375H29.3203125L25.1806640625 0.931640625Q24.556640625 2.5751953125 23.72607421875 3.22998046875Q22.8955078125 3.884765625 21.533203125 3.884765625H19.7138671875V1.8193359375H20.6982421875Q21.498046875 1.8193359375 21.86279296875 1.564453125Q22.2275390625 1.3095703125 22.4296875 0.650390625L22.517578125 0.3779296875ZM44.736328125 -7.1630859375Q44.3232421875 -7.3564453125 43.91455078125 -7.44873046875Q43.505859375 -7.541015625 43.0927734375 -7.541015625Q41.8798828125 -7.541015625 41.22509765625 -6.76318359375Q40.5703125 -5.9853515625 40.5703125 -4.53515625V0.0H37.423828125V-9.84375H40.5703125V-8.2265625Q41.1767578125 -9.193359375 41.96337890625 -9.63720703125Q42.75 -10.0810546875 43.8486328125 -10.0810546875Q44.0068359375 -10.0810546875 44.19140625 -10.06787109375Q44.3759765625 -10.0546875 44.7275390625 -10.0107421875ZM50.9853515625 -7.8310546875Q49.939453125 -7.8310546875 49.39013671875 -7.07958984375Q48.8408203125 -6.328125 48.8408203125 -4.9130859375Q48.8408203125 -3.498046875 49.39013671875 -2.74658203125Q49.939453125 -1.9951171875 50.9853515625 -1.9951171875Q52.013671875 -1.9951171875 52.55859375 -2.74658203125Q53.103515625 -3.498046875 53.103515625 -4.9130859375Q53.103515625 -6.328125 52.55859375 -7.07958984375Q52.013671875 -7.8310546875 50.9853515625 -7.8310546875ZM50.9853515625 -10.0810546875Q53.525390625 -10.0810546875 54.95361328125 -8.7099609375Q56.3818359375 -7.3388671875 56.3818359375 -4.9130859375Q56.3818359375 -2.4873046875 54.95361328125 -1.1162109375Q53.525390625 0.2548828125 50.9853515625 0.2548828125Q48.4365234375 0.2548828125 46.99951171875 -1.1162109375Q45.5625 -2.4873046875 45.5625 -4.9130859375Q45.5625 -7.3388671875 46.99951171875 -8.7099609375Q48.4365234375 -10.0810546875 50.9853515625 -10.0810546875ZM58.6669921875 -13.67578125H61.8134765625V0.0H58.6669921875ZM74.6630859375 -4.9482421875V-4.0517578125H67.306640625Q67.4208984375 -2.9443359375 68.1064453125 -2.390625Q68.7919921875 -1.8369140625 70.0224609375 -1.8369140625Q71.015625 -1.8369140625 72.05712890625 -2.13134765625Q73.0986328125 -2.42578125 74.197265625 -3.0234375V-0.59765625Q73.0810546875 -0.17578125 71.96484375 0.03955078125Q70.8486328125 0.2548828125 69.732421875 0.2548828125Q67.060546875 0.2548828125 65.57958984375 -1.10302734375Q64.0986328125 -2.4609375 64.0986328125 -4.9130859375Q64.0986328125 -7.3212890625 65.55322265625 -8.701171875Q67.0078125 -10.0810546875 69.556640625 -10.0810546875Q71.876953125 -10.0810546875 73.27001953125 -8.68359375Q74.6630859375 -7.2861328125 74.6630859375 -4.9482421875ZM71.4287109375 -5.994140625Q71.4287109375 -6.890625 70.90576171875 -7.43994140625Q70.3828125 -7.9892578125 69.5390625 -7.9892578125Q68.625 -7.9892578125 68.0537109375 -7.47509765625Q67.482421875 -6.9609375 67.341796875 -5.994140625Z" /></svg>
