<svg xmlns="http://www.w3.org/2000/svg" width="960" height="178" viewBox="0 0 960 178" role="img" aria-label="Hola, soy Hastur"><title>Hola, soy Hastur</title><defs>
  <linearGradient id="gold" x1="0" y1="0" x2="0" y2="1"><stop stop-color="#FFE578"/><stop offset="0.55" stop-color="#EBC84B"/><stop offset="1" stop-color="#B88A22"/></linearGradient>
  <mask id="worn"><rect width="960" height="178" fill="white"/>
    <g fill="black">
      <path d="M316 53l4 25-2 15 5 22-2 18-3-23 1-16-5-13z"/>
      <path d="M393 67l-4 16 4 11-7 29 4-28-4-13z"/>
      <path d="M451 44l3 30-4 18 4 22-3 20-1-20-3-24 4-18z"/>
      <path d="M514 62l-4 19 5 15-4 26 1-25-5-14z"/>
      <path d="M571 54l-3 27 5 14-2 31-2-29-4-13z"/>
      <path d="M625 57l3 30-5 15 4 27-6-26 4-15z"/>
      <path d="M286 91l46 2 24-3-21 5-29-1zM414 120l26-4 29 1-25 1zM537 87l39-3 37 3-33-1zM599 135l36-4 29 2-25 1z"/>
    </g>
  </mask>
</defs><rect width="960" height="178" fill="#0D1117"/><g fill="#BAA65B"><path transform="translate(427.93 22.00)" d="M1.27587890625 -9.47705078125H2.55810546875V-5.59228515625H7.21728515625V-9.47705078125H8.49951171875V0.0H7.21728515625V-4.51318359375H2.55810546875V0.0H1.27587890625ZM18.89794921875 -8.607421875Q17.50146484375 -8.607421875 16.679443359375 -7.56640625Q15.857421875 -6.525390625 15.857421875 -4.72900390625Q15.857421875 -2.93896484375 16.679443359375 -1.89794921875Q17.50146484375 -0.85693359375 18.89794921875 -0.85693359375Q20.29443359375 -0.85693359375 21.110107421875 -1.89794921875Q21.92578125 -2.93896484375 21.92578125 -4.72900390625Q21.92578125 -6.525390625 21.110107421875 -7.56640625Q20.29443359375 -8.607421875 18.89794921875 -8.607421875ZM18.89794921875 -9.6484375Q20.89111328125 -9.6484375 22.08447265625 -8.312255859375Q23.27783203125 -6.97607421875 23.27783203125 -4.72900390625Q23.27783203125 -2.48828125 22.08447265625 -1.152099609375Q20.89111328125 0.18408203125 18.89794921875 0.18408203125Q16.8984375 0.18408203125 15.701904296875 -1.14892578125Q14.50537109375 -2.48193359375 14.50537109375 -4.72900390625Q14.50537109375 -6.97607421875 15.701904296875 -8.312255859375Q16.8984375 -9.6484375 18.89794921875 -9.6484375ZM29.28369140625 -9.47705078125H30.56591796875V-1.0791015625H35.1806640625V0.0H29.28369140625ZM43.69384765625 -8.2138671875 41.95458984375 -3.49755859375H45.439453125ZM42.97021484375 -9.47705078125H44.423828125L48.03564453125 0.0H46.70263671875L45.83935546875 -2.43115234375H41.5673828125L40.7041015625 0.0H39.35205078125ZM53.6669921875 -1.6123046875H55.00634765625V-0.5205078125L53.96533203125 1.5107421875H53.146484375L53.6669921875 -0.5205078125ZM75.365234375 -9.166015625V-7.91552734375Q74.63525390625 -8.2646484375 73.98779296875 -8.43603515625Q73.34033203125 -8.607421875 72.7373046875 -8.607421875Q71.68994140625 -8.607421875 71.121826171875 -8.201171875Q70.5537109375 -7.794921875 70.5537109375 -7.0458984375Q70.5537109375 -6.41748046875 70.931396484375 -6.096923828125Q71.30908203125 -5.7763671875 72.36279296875 -5.57958984375L73.13720703125 -5.4208984375Q74.57177734375 -5.14794921875 75.254150390625 -4.459228515625Q75.9365234375 -3.7705078125 75.9365234375 -2.615234375Q75.9365234375 -1.23779296875 75.012939453125 -0.52685546875Q74.08935546875 0.18408203125 72.3056640625 0.18408203125Q71.6328125 0.18408203125 70.874267578125 0.03173828125Q70.11572265625 -0.12060546875 69.30322265625 -0.4189453125V-1.7392578125Q70.083984375 -1.30126953125 70.8330078125 -1.0791015625Q71.58203125 -0.85693359375 72.3056640625 -0.85693359375Q73.40380859375 -0.85693359375 74.00048828125 -1.28857421875Q74.59716796875 -1.72021484375 74.59716796875 -2.52001953125Q74.59716796875 -3.21826171875 74.168701171875 -3.61181640625Q73.740234375 -4.00537109375 72.7626953125 -4.2021484375L71.98193359375 -4.3544921875Q70.54736328125 -4.64013671875 69.90625 -5.24951171875Q69.26513671875 -5.85888671875 69.26513671875 -6.9443359375Q69.26513671875 -8.201171875 70.150634765625 -8.9248046875Q71.0361328125 -9.6484375 72.59130859375 -9.6484375Q73.2578125 -9.6484375 73.94970703125 -9.52783203125Q74.6416015625 -9.4072265625 75.365234375 -9.166015625ZM85.78271484375 -8.607421875Q84.38623046875 -8.607421875 83.564208984375 -7.56640625Q82.7421875 -6.525390625 82.7421875 -4.72900390625Q82.7421875 -2.93896484375 83.564208984375 -1.89794921875Q84.38623046875 -0.85693359375 85.78271484375 -0.85693359375Q87.17919921875 -0.85693359375 87.994873046875 -1.89794921875Q88.810546875 -2.93896484375 88.810546875 -4.72900390625Q88.810546875 -6.525390625 87.994873046875 -7.56640625Q87.17919921875 -8.607421875 85.78271484375 -8.607421875ZM85.78271484375 -9.6484375Q87.77587890625 -9.6484375 88.96923828125 -8.312255859375Q90.16259765625 -6.97607421875 90.16259765625 -4.72900390625Q90.16259765625 -2.48828125 88.96923828125 -1.152099609375Q87.77587890625 0.18408203125 85.78271484375 0.18408203125Q83.783203125 0.18408203125 82.586669921875 -1.14892578125Q81.39013671875 -2.48193359375 81.39013671875 -4.72900390625Q81.39013671875 -6.97607421875 82.586669921875 -8.312255859375Q83.783203125 -9.6484375 85.78271484375 -9.6484375ZM94.8671875 -9.47705078125H96.24462890625L98.87255859375 -5.57958984375L101.4814453125 -9.47705078125H102.85888671875L99.50732421875 -4.51318359375V0.0H98.21875V-4.51318359375Z"/></g><g fill="url(#gold)" mask="url(#worn)"><path transform="translate(319.84 140.00)" d="M35.36 -55.624V-79.56Q35.36 -84.59200000000001 34.272000000000006 -86.768Q33.184000000000005 -88.944 29.784000000000002 -88.944V-93.16000000000001L57.664 -104.85600000000001L59.84 -100.504Q56.848000000000006 -100.504 54.12800000000001 -96.968Q51.68000000000001 -93.56800000000001 51.68000000000001 -86.632V-55.624H58.480000000000004V-52.36000000000001L51.68000000000001 -48.96V-20.128Q51.68000000000001 -11.832 57.25600000000001 -10.744000000000002V-7.752000000000001L43.52 0.0Q40.528000000000006 -1.2240000000000002 37.944 -4.0120000000000005Q35.36 -6.800000000000001 35.36 -9.248000000000001V-48.96H23.12V-20.944000000000003Q23.12 -15.912 24.208000000000002 -13.736Q25.296000000000003 -11.56 28.696 -11.56V-7.344L0.8160000000000001 4.352L-1.36 0.0Q1.6320000000000001 0.0 4.352 -3.5360000000000005Q6.800000000000001 -6.936000000000001 6.800000000000001 -13.872000000000002V-84.59200000000001Q6.800000000000001 -92.888 1.2240000000000002 -93.97600000000001V-96.968L14.96 -104.72000000000001Q17.952 -103.49600000000001 20.536 -100.708Q23.12 -97.92 23.12 -95.47200000000001V-51.952000000000005L29.92 -55.624ZM110.44 -59.568000000000005V-21.080000000000002Q110.44 -16.048000000000002 112.072 -14.076Q113.70400000000001 -12.104000000000001 117.10400000000001 -11.288V-8.296000000000001L102.28 0.0Q99.28800000000001 -1.2240000000000002 96.70400000000001 -4.0120000000000005Q94.12 -6.800000000000001 94.12 -9.112L77.12 0.0Q76.712 -0.272 75.89600000000002 -0.7480000000000001Q75.08000000000001 -1.2240000000000002 73.108 -2.7880000000000003Q71.13600000000001 -4.352 69.64 -6.12Q65.56 -10.608 65.56 -16.32V-38.624Q65.56 -40.800000000000004 72.632 -44.2Q79.70400000000001 -47.6 86.77600000000001 -49.776L93.98400000000001 -52.088Q93.98400000000001 -59.84 89.90400000000001 -62.900000000000006Q85.82400000000001 -65.96000000000001 74.128 -65.96000000000001V-70.04Q95.208 -77.52000000000001 97.792 -77.52000000000001Q102.28 -77.52000000000001 106.36 -71.672Q110.44 -65.824 110.44 -59.568000000000005ZM94.12 -15.232000000000001V-45.968Q90.72 -44.744 89.02000000000001 -43.928Q87.32000000000001 -43.112 85.416 -41.344Q81.88000000000001 -38.080000000000005 81.88000000000001 -30.056V-21.216Q81.88000000000001 -17.68 83.988 -15.436Q86.096 -13.192 88.68 -13.192Q91.26400000000001 -13.192 94.12 -15.232000000000001ZM133.29600000000002 -29.784000000000002Q129.89600000000002 -29.784000000000002 127.44800000000001 -34.952000000000005Q125.00000000000001 -40.120000000000005 125.00000000000001 -47.6V-62.288000000000004Q125.00000000000001 -64.872 139.28 -71.196Q153.56 -77.52000000000001 155.73600000000002 -77.52000000000001Q156.96 -77.52000000000001 157.912 -76.09200000000001Q158.864 -74.664 159.40800000000002 -73.78Q159.952 -72.896 161.108 -70.78800000000001Q162.264 -68.68 163.08 -67.32000000000001Q164.848 -64.05600000000001 167.568 -64.05600000000001V-61.336000000000006Q165.392 -60.38400000000001 161.856 -58.480000000000004Q153.15200000000002 -53.720000000000006 152.472 -53.720000000000006Q150.43200000000002 -53.720000000000006 148.05200000000002 -60.384Q145.67200000000003 -67.048 143.768 -67.048Q141.32000000000002 -67.048 141.32000000000002 -62.968V-46.24Q141.32000000000002 -40.800000000000004 143.768 -40.800000000000004Q144.312 -40.800000000000004 152.20000000000002 -44.336Q160.08800000000002 -47.872 161.72000000000003 -47.872Q164.984 -47.872 167.5 -42.636Q170.01600000000002 -37.400000000000006 170.01600000000002 -29.240000000000002V-13.872000000000002Q170.01600000000002 -11.288 154.44400000000002 -4.964Q138.872 1.36 136.56 1.36Q135.608 1.36 134.724 -0.33999999999999997Q133.84 -2.04 132.276 -5.5760000000000005Q130.71200000000002 -9.112 129.216 -11.56Q127.44800000000001 -14.824000000000002 124.72800000000001 -14.824000000000002V-17.544Q126.90400000000001 -18.496000000000002 130.57600000000002 -20.400000000000002Q139.144 -25.16 139.824 -25.16Q141.864 -25.16 144.924 -17.136Q147.984 -9.112 149.888 -9.112Q151.24800000000002 -9.112 152.47200000000004 -10.2Q153.69600000000003 -11.288 153.69600000000003 -13.192V-30.192000000000004Q153.69600000000003 -36.312000000000005 150.29600000000002 -36.312000000000005Q149.20800000000003 -36.312000000000005 141.728 -33.048Q134.24800000000002 -29.784000000000002 133.29600000000002 -29.784000000000002ZM201.44000000000003 -91.664V-75.48H208.37600000000003L207.01600000000002 -68.816H201.44000000000003V-20.128Q201.44000000000003 -11.832 207.01600000000002 -10.744000000000002V-7.752000000000001L193.28000000000003 0.0Q190.288 -1.2240000000000002 187.704 -4.0120000000000005Q185.12000000000003 -6.800000000000001 185.12000000000003 -9.248000000000001V-68.68H179.544L180.90400000000002 -74.39200000000001Q184.984 -74.39200000000001 190.764 -79.9Q196.544 -85.408 197.63200000000003 -91.664ZM246.60000000000002 -15.232000000000001V-57.528000000000006Q246.60000000000002 -65.824 241.024 -66.912V-69.90400000000001L254.76000000000002 -77.656Q257.752 -76.432 260.336 -73.644Q262.92 -70.85600000000001 262.92 -68.408V-22.304000000000002Q262.92 -17.816000000000003 264.824 -14.552000000000001Q266.728 -11.288 269.584 -11.288V-8.296000000000001Q268.632 -8.16 254.76000000000002 0.0Q251.632 -1.36 249.116 -4.0120000000000005Q246.60000000000002 -6.664000000000001 246.60000000000002 -9.112L229.60000000000002 0.0Q229.192 -0.272 228.376 -0.7480000000000001Q227.56 -1.2240000000000002 225.58800000000002 -2.7880000000000003Q223.616 -4.352 222.12 -6.12Q218.04000000000002 -10.608 218.04000000000002 -16.32V-57.528000000000006Q218.04000000000002 -65.00800000000001 211.376 -66.36800000000001V-69.36L226.20000000000002 -77.656Q229.192 -76.432 231.776 -73.644Q234.36 -70.85600000000001 234.36 -68.408V-21.216Q234.36 -17.68 236.46800000000002 -15.436Q238.57600000000002 -13.192 241.16000000000003 -13.192Q243.74400000000003 -13.192 246.60000000000002 -15.232000000000001ZM272.85600000000005 -69.36 287.81600000000003 -77.52000000000001Q288.76800000000003 -77.248 290.06000000000006 -76.772Q291.35200000000003 -76.296 293.596 -74.12Q295.84000000000003 -71.944 295.84000000000003 -69.224Q296.52000000000004 -69.49600000000001 302.30000000000007 -73.50800000000001Q308.08000000000004 -77.52000000000001 309.71200000000005 -77.52000000000001Q314.064 -77.52000000000001 317.872 -71.808Q321.68 -66.096 321.68 -61.336000000000006V-54.672000000000004L307.672 -46.784000000000006L305.36 -48.688Q305.36 -60.112 303.184 -61.74400000000001Q300.73600000000005 -63.51200000000001 295.84000000000003 -63.51200000000001V-20.128Q295.84000000000003 -11.832 301.41600000000005 -10.744000000000002V-7.752000000000001L287.68 0.0Q284.68800000000005 -1.2240000000000002 282.10400000000004 -4.0120000000000005Q279.52000000000004 -6.800000000000001 279.52000000000004 -9.248000000000001V-54.400000000000006Q279.52000000000004 -60.38400000000001 277.41200000000003 -63.376000000000005Q275.30400000000003 -66.36800000000001 272.85600000000005 -66.36800000000001Z"/></g><g stroke="#D5AE36" fill="none"><path d="M0 80h198l12 12-12 12H0M960 80H762l-12 12 12 12h198" opacity=".55"/><path d="M0 172h438m84 0h438"/><path d="M464 172l16-5 16 5-16 5z"/></g></svg>
