<svg xmlns="http://www.w3.org/2000/svg" width="100" height="26" viewBox="0 0 100 26" role="img" aria-label="Hola, soy"><title>Hola, soy</title><path fill="#F0F3F6" transform="translate(13.560,19)" d="M10.931000000000001 0.0H9.401V-5.6610000000000005H3.1790000000000003V0.0H1.649V-12.138000000000002H3.1790000000000003V-7.0040000000000004H9.401V-12.138000000000002H10.931000000000001ZM21.964000000000002 -4.573Q21.964000000000002 -2.3120000000000003 20.816500000000005 -1.0710000000000002Q19.669000000000004 0.17 17.714000000000002 0.17Q16.507 0.17 15.563500000000001 -0.3825Q14.620000000000001 -0.935 14.076 -1.9975Q13.532000000000002 -3.06 13.532000000000002 -4.573Q13.532000000000002 -6.8340000000000005 14.671000000000003 -8.058Q15.810000000000002 -9.282 17.765 -9.282Q19.006 -9.282 19.9495 -8.729500000000002Q20.893 -8.177000000000001 21.4285 -7.131500000000001Q21.964000000000002 -6.086 21.964000000000002 -4.573ZM15.079 -4.573Q15.079 -2.958 15.716500000000002 -2.0145Q16.354000000000003 -1.0710000000000002 17.748 -1.0710000000000002Q19.125 -1.0710000000000002 19.771 -2.0145Q20.417 -2.958 20.417 -4.573Q20.417 -6.188000000000001 19.771 -7.106000000000001Q19.125 -8.024000000000001 17.731 -8.024000000000001Q16.337000000000003 -8.024000000000001 15.708000000000002 -7.106000000000001Q15.079 -6.188000000000001 15.079 -4.573ZM25.823 0.0H24.327V-12.920000000000002H25.823ZM32.164 -9.265Q33.83 -9.265 34.629 -8.534Q35.428 -7.803000000000001 35.428 -6.205V0.0H34.34L34.051 -1.292H33.983000000000004Q33.388 -0.544 32.7335 -0.187Q32.079 0.17 30.923000000000002 0.17Q29.682000000000002 0.17 28.866 -0.4845Q28.05 -1.139 28.05 -2.5330000000000004Q28.05 -3.8930000000000002 29.121000000000002 -4.6325Q30.192 -5.372000000000001 32.419000000000004 -5.44L33.966 -5.4910000000000005V-6.035Q33.966 -7.174 33.473 -7.616Q32.980000000000004 -8.058 32.079 -8.058Q31.365000000000002 -8.058 30.719 -7.8455Q30.073 -7.633000000000001 29.512 -7.361000000000001L29.053 -8.483Q29.648 -8.806000000000001 30.464 -9.0355Q31.28 -9.265 32.164 -9.265ZM32.606 -4.4030000000000005Q30.906000000000002 -4.335 30.2515 -3.859Q29.597 -3.3830000000000005 29.597 -2.516Q29.597 -1.7510000000000001 30.064500000000002 -1.3940000000000001Q30.532 -1.0370000000000001 31.263 -1.0370000000000001Q32.419000000000004 -1.0370000000000001 33.184 -1.6745Q33.949 -2.3120000000000003 33.949 -3.6380000000000003V-4.454000000000001ZM40.069 -1.7850000000000001Q39.848 -0.8840000000000001 39.4315 0.1955Q39.015 1.2750000000000001 38.607 2.193H37.502Q37.74 1.2240000000000002 37.9865 0.06800000000000006Q38.233 -1.088 38.352 -1.9720000000000002H39.95ZM53.159 -2.516Q53.159 -1.1900000000000002 52.173 -0.5100000000000001Q51.187 0.17 49.521 0.17Q48.569 0.17 47.8805 0.017Q47.192 -0.136 46.665 -0.40800000000000003V-1.7680000000000002Q47.208999999999996 -1.496 47.9825 -1.2665000000000002Q48.756 -1.0370000000000001 49.555 -1.0370000000000001Q50.694 -1.0370000000000001 51.204 -1.4025000000000003Q51.714 -1.7680000000000002 51.714 -2.3800000000000003Q51.714 -2.72 51.527 -2.992Q51.339999999999996 -3.2640000000000002 50.8555 -3.5360000000000005Q50.371 -3.8080000000000003 49.47 -4.148000000000001Q48.586 -4.488 47.956999999999994 -4.828Q47.327999999999996 -5.168 46.988 -5.644Q46.647999999999996 -6.12 46.647999999999996 -6.868Q46.647999999999996 -8.024000000000001 47.591499999999996 -8.653Q48.535 -9.282 50.065 -9.282Q50.897999999999996 -9.282 51.62049999999999 -9.1205Q52.342999999999996 -8.959000000000001 52.972 -8.67L52.461999999999996 -7.48Q51.884 -7.718000000000001 51.254999999999995 -7.888Q50.626 -8.058 49.963 -8.058Q49.045 -8.058 48.560500000000005 -7.7605Q48.076 -7.463000000000001 48.076 -6.953Q48.076 -6.579000000000001 48.297 -6.3155Q48.518 -6.0520000000000005 49.036500000000004 -5.8055Q49.555 -5.559 50.422 -5.219Q51.289 -4.896000000000001 51.900999999999996 -4.556000000000001Q52.513 -4.216 52.836 -3.7315000000000005Q53.159 -3.2470000000000003 53.159 -2.516ZM63.291 -4.573Q63.291 -2.3120000000000003 62.1435 -1.0710000000000002Q60.996 0.17 59.041 0.17Q57.834 0.17 56.8905 -0.3825Q55.947 -0.935 55.403000000000006 -1.9975Q54.859 -3.06 54.859 -4.573Q54.859 -6.8340000000000005 55.998000000000005 -8.058Q57.137 -9.282 59.092 -9.282Q60.333 -9.282 61.2765 -8.729500000000002Q62.22 -8.177000000000001 62.7555 -7.131500000000001Q63.291 -6.086 63.291 -4.573ZM56.406 -4.573Q56.406 -2.958 57.043499999999995 -2.0145Q57.681 -1.0710000000000002 59.075 -1.0710000000000002Q60.452 -1.0710000000000002 61.098 -2.0145Q61.744 -2.958 61.744 -4.573Q61.744 -6.188000000000001 61.098 -7.106000000000001Q60.452 -8.024000000000001 59.058 -8.024000000000001Q57.664 -8.024000000000001 57.035 -7.106000000000001Q56.406 -6.188000000000001 56.406 -4.573ZM64.226 -9.112H65.824L67.796 -3.9270000000000005Q68.051 -3.2470000000000003 68.255 -2.6265Q68.459 -2.0060000000000002 68.561 -1.445H68.629Q68.73100000000001 -1.87 68.952 -2.5585000000000004Q69.173 -3.2470000000000003 69.411 -3.9440000000000004L71.26400000000001 -9.112H72.879L68.952 1.258Q68.476 2.5500000000000003 67.71950000000001 3.3150000000000004Q66.96300000000001 4.08 65.637 4.08Q65.229 4.08 64.923 4.0375Q64.617 3.995 64.396 3.9440000000000004V2.754Q64.583 2.7880000000000003 64.84649999999999 2.822Q65.11 2.8560000000000003 65.399 2.8560000000000003Q66.181 2.8560000000000003 66.66550000000001 2.414Q67.15 1.9720000000000002 67.422 1.241L67.898 0.034Z"/></svg>
