<svg xmlns="http://www.w3.org/2000/svg" width="340" height="52" viewBox="0 0 340 52" role="img" aria-label="Qué hace">
<title>Qué hace</title><rect x="-34" y="-5.2" width="408" height="62.4" fill="rgb(0%, 0%, 0%)" fill-opacity="1" />
<path fill-rule="nonzero" fill="rgb(76.862745%, 60.392157%, 13.72549%)" fill-opacity="1" d="M 130.773438 32.464844 L 130.523438 32.464844 C 128.355469 32.464844 126.667969 31.871094 125.460938 30.683594 C 124.261719 29.488281 123.664062 27.820312 123.664062 25.683594 C 123.664062 23.558594 124.261719 21.894531 125.460938 20.683594 C 126.65625 19.476562 128.308594 18.871094 130.414062 18.871094 C 132.546875 18.871094 134.203125 19.472656 135.382812 20.667969 C 136.570312 21.855469 137.164062 23.527344 137.164062 25.683594 C 137.164062 27.164062 136.84375 28.433594 136.210938 29.496094 C 135.585938 30.558594 134.683594 31.363281 133.507812 31.902344 L 136.148438 34.855469 L 132.929688 34.855469 Z M 130.414062 21.324219 C 129.382812 21.324219 128.578125 21.707031 128.007812 22.464844 C 127.445312 23.226562 127.164062 24.300781 127.164062 25.683594 C 127.164062 27.089844 127.4375 28.167969 127.992188 28.917969 C 128.554688 29.660156 129.359375 30.027344 130.414062 30.027344 C 131.453125 30.027344 132.257812 29.648438 132.820312 28.886719 C 133.390625 28.128906 133.679688 27.058594 133.679688 25.683594 C 133.679688 24.300781 133.390625 23.226562 132.820312 22.464844 C 132.257812 21.707031 131.453125 21.324219 130.414062 21.324219 Z M 139.480469 28.402344 L 139.480469 22.386719 L 142.652344 22.386719 L 142.652344 23.371094 C 142.652344 23.902344 142.644531 24.574219 142.636719 25.386719 C 142.625 26.191406 142.621094 26.726562 142.621094 26.996094 C 142.621094 27.789062 142.640625 28.363281 142.683594 28.714844 C 142.722656 29.058594 142.796875 29.308594 142.902344 29.464844 C 143.027344 29.664062 143.191406 29.820312 143.402344 29.933594 C 143.609375 30.050781 143.847656 30.105469 144.121094 30.105469 C 144.777344 30.105469 145.292969 29.855469 145.667969 29.355469 C 146.042969 28.847656 146.230469 28.144531 146.230469 27.246094 L 146.230469 22.386719 L 149.371094 22.386719 L 149.371094 32.230469 L 146.230469 32.230469 L 146.230469 30.808594 C 145.75 31.382812 145.246094 31.804688 144.714844 32.074219 C 144.191406 32.34375 143.609375 32.480469 142.964844 32.480469 C 141.828125 32.480469 140.964844 32.132812 140.371094 31.433594 C 139.777344 30.738281 139.480469 29.726562 139.480469 28.402344 Z M 162.234375 27.277344 L 162.234375 28.183594 L 154.875 28.183594 C 154.945312 28.925781 155.210938 29.476562 155.671875 29.839844 C 156.128906 30.207031 156.769531 30.386719 157.59375 30.386719 C 158.25 30.386719 158.925781 30.292969 159.625 30.105469 C 160.320312 29.910156 161.035156 29.605469 161.765625 29.199219 L 161.765625 31.636719 C 161.015625 31.917969 160.269531 32.128906 159.53125 32.261719 C 158.789062 32.40625 158.046875 32.480469 157.296875 32.480469 C 155.515625 32.480469 154.128906 32.027344 153.140625 31.121094 C 152.160156 30.214844 151.671875 28.949219 151.671875 27.324219 C 151.671875 25.710938 152.15625 24.445312 153.125 23.527344 C 154.09375 22.613281 155.425781 22.152344 157.125 22.152344 C 158.664062 22.152344 159.898438 22.621094 160.828125 23.558594 C 161.765625 24.488281 162.234375 25.726562 162.234375 27.277344 Z M 159 26.230469 C 159 25.636719 158.820312 25.160156 158.46875 24.792969 C 158.125 24.429688 157.671875 24.246094 157.109375 24.246094 C 156.492188 24.246094 155.992188 24.417969 155.609375 24.761719 C 155.234375 25.097656 155 25.585938 154.90625 26.230469 Z M 158.484375 17.839844 L 160.96875 17.839844 L 157.734375 21.136719 L 156 21.136719 Z M 180.769531 26.230469 L 180.769531 32.230469 L 177.613281 32.230469 L 177.613281 27.652344 C 177.613281 26.800781 177.589844 26.210938 177.550781 25.886719 C 177.507812 25.566406 177.441406 25.324219 177.347656 25.167969 C 177.230469 24.972656 177.066406 24.816406 176.847656 24.699219 C 176.636719 24.585938 176.398438 24.527344 176.128906 24.527344 C 175.472656 24.527344 174.957031 24.785156 174.582031 25.292969 C 174.207031 25.792969 174.019531 26.492188 174.019531 27.386719 L 174.019531 32.230469 L 170.878906 32.230469 L 170.878906 18.558594 L 174.019531 18.558594 L 174.019531 23.824219 C 174.496094 23.253906 175.003906 22.832031 175.535156 22.558594 C 176.066406 22.289062 176.652344 22.152344 177.300781 22.152344 C 178.433594 22.152344 179.292969 22.503906 179.878906 23.199219 C 180.472656 23.898438 180.769531 24.910156 180.769531 26.230469 Z M 188.101562 27.792969 C 187.445312 27.792969 186.949219 27.910156 186.617188 28.136719 C 186.292969 28.355469 186.132812 28.683594 186.132812 29.121094 C 186.132812 29.519531 186.261719 29.832031 186.523438 30.058594 C 186.792969 30.277344 187.164062 30.386719 187.632812 30.386719 C 188.226562 30.386719 188.726562 30.179688 189.132812 29.761719 C 189.539062 29.335938 189.742188 28.804688 189.742188 28.167969 L 189.742188 27.792969 Z M 192.914062 26.621094 L 192.914062 32.230469 L 189.742188 32.230469 L 189.742188 30.777344 C 189.3125 31.371094 188.835938 31.804688 188.304688 32.074219 C 187.78125 32.34375 187.140625 32.480469 186.382812 32.480469 C 185.371094 32.480469 184.546875 32.183594 183.914062 31.589844 C 183.277344 30.996094 182.960938 30.226562 182.960938 29.277344 C 182.960938 28.121094 183.355469 27.277344 184.148438 26.746094 C 184.9375 26.207031 186.183594 25.933594 187.882812 25.933594 L 189.742188 25.933594 L 189.742188 25.683594 C 189.742188 25.183594 189.542969 24.820312 189.148438 24.589844 C 188.75 24.363281 188.140625 24.246094 187.320312 24.246094 C 186.640625 24.246094 186.011719 24.316406 185.429688 24.449219 C 184.84375 24.585938 184.308594 24.785156 183.820312 25.042969 L 183.820312 22.652344 C 184.484375 22.488281 185.15625 22.363281 185.835938 22.277344 C 186.523438 22.195312 187.203125 22.152344 187.882812 22.152344 C 189.664062 22.152344 190.945312 22.503906 191.726562 23.199219 C 192.515625 23.898438 192.914062 25.039062 192.914062 26.621094 Z M 203.792969 22.699219 L 203.792969 25.261719 C 203.363281 24.972656 202.933594 24.757812 202.496094 24.621094 C 202.066406 24.476562 201.625 24.402344 201.167969 24.402344 C 200.28125 24.402344 199.59375 24.660156 199.105469 25.167969 C 198.613281 25.679688 198.371094 26.398438 198.371094 27.324219 C 198.371094 28.242188 198.613281 28.957031 199.105469 29.464844 C 199.59375 29.976562 200.28125 30.230469 201.167969 30.230469 C 201.65625 30.230469 202.121094 30.160156 202.558594 30.011719 C 203.003906 29.867188 203.417969 29.652344 203.792969 29.371094 L 203.792969 31.933594 C 203.300781 32.121094 202.800781 32.253906 202.292969 32.339844 C 201.78125 32.433594 201.269531 32.480469 200.761719 32.480469 C 198.988281 32.480469 197.605469 32.027344 196.605469 31.121094 C 195.605469 30.207031 195.105469 28.941406 195.105469 27.324219 C 195.105469 25.699219 195.605469 24.433594 196.605469 23.527344 C 197.605469 22.613281 198.988281 22.152344 200.761719 22.152344 C 201.28125 22.152344 201.792969 22.199219 202.292969 22.292969 C 202.792969 22.378906 203.292969 22.511719 203.792969 22.699219 Z M 216.339844 27.277344 L 216.339844 28.183594 L 208.980469 28.183594 C 209.050781 28.925781 209.316406 29.476562 209.777344 29.839844 C 210.234375 30.207031 210.875 30.386719 211.699219 30.386719 C 212.355469 30.386719 213.03125 30.292969 213.730469 30.105469 C 214.425781 29.910156 215.140625 29.605469 215.871094 29.199219 L 215.871094 31.636719 C 215.121094 31.917969 214.375 32.128906 213.636719 32.261719 C 212.894531 32.40625 212.152344 32.480469 211.402344 32.480469 C 209.621094 32.480469 208.234375 32.027344 207.246094 31.121094 C 206.265625 30.214844 205.777344 28.949219 205.777344 27.324219 C 205.777344 25.710938 206.261719 24.445312 207.230469 23.527344 C 208.199219 22.613281 209.53125 22.152344 211.230469 22.152344 C 212.769531 22.152344 214.003906 22.621094 214.933594 23.558594 C 215.871094 24.488281 216.339844 25.726562 216.339844 27.277344 Z M 213.105469 26.230469 C 213.105469 25.636719 212.925781 25.160156 212.574219 24.792969 C 212.230469 24.429688 211.777344 24.246094 211.214844 24.246094 C 210.597656 24.246094 210.097656 24.417969 209.714844 24.761719 C 209.339844 25.097656 209.105469 25.585938 209.011719 26.230469 Z M 217.203125 32.230469 " />
<path fill="none" stroke-width="1.4" stroke-linecap="butt" stroke-linejoin="miter" stroke="rgb(76.862745%, 60.392157%, 13.72549%)" stroke-opacity="1" stroke-miterlimit="10" d="M 0 0.699219 L 340 0.699219 M 339.300781 0 L 339.300781 52 M 0 51.300781 L 340 51.300781 " />
</svg>
