<svg xmlns="http://www.w3.org/2000/svg" width="340" height="124" viewBox="0 0 340 124" role="img" aria-label="Description: Gestion, communication et présence numérique pour les petites entreprises">
<title>Description: Gestion, communication et présence numérique pour les petites entreprises</title><rect x="-34" y="-12.4" width="408" height="148.8" fill="rgb(0%, 0%, 0%)" fill-opacity="1" />
<path fill-rule="nonzero" fill="rgb(94.117647%, 95.294118%, 96.470588%)" fill-opacity="1" d="M 23.402344 42.121094 L 23.402344 38.792969 L 20.652344 38.792969 L 20.652344 37.417969 L 25.058594 37.417969 L 25.058594 42.730469 C 24.410156 43.191406 23.699219 43.539062 22.917969 43.777344 C 22.136719 44.003906 21.300781 44.121094 20.417969 44.121094 C 18.480469 44.121094 16.964844 43.558594 15.871094 42.433594 C 14.777344 41.300781 14.230469 39.722656 14.230469 37.699219 C 14.230469 35.679688 14.777344 34.101562 15.871094 32.964844 C 16.964844 31.832031 18.480469 31.261719 20.417969 31.261719 C 21.21875 31.261719 21.984375 31.367188 22.714844 31.574219 C 23.441406 31.773438 24.113281 32.066406 24.730469 32.449219 L 24.730469 34.230469 C 24.113281 33.710938 23.457031 33.320312 22.761719 33.058594 C 22.0625 32.789062 21.328125 32.652344 20.558594 32.652344 C 19.035156 32.652344 17.894531 33.074219 17.136719 33.917969 C 16.375 34.761719 15.996094 36.023438 15.996094 37.699219 C 15.996094 39.378906 16.375 40.636719 17.136719 41.480469 C 17.894531 42.324219 19.035156 42.746094 20.558594 42.746094 C 21.152344 42.746094 21.675781 42.699219 22.136719 42.605469 C 22.605469 42.503906 23.027344 42.339844 23.402344 42.121094 Z M 35.996094 38.855469 L 35.996094 39.605469 L 28.980469 39.605469 C 29.042969 40.660156 29.355469 41.460938 29.917969 42.011719 C 30.488281 42.566406 31.285156 42.839844 32.308594 42.839844 C 32.890625 42.839844 33.457031 42.769531 34.011719 42.621094 C 34.5625 42.476562 35.109375 42.257812 35.652344 41.964844 L 35.652344 43.417969 C 35.097656 43.648438 34.535156 43.820312 33.964844 43.933594 C 33.390625 44.058594 32.808594 44.121094 32.214844 44.121094 C 30.722656 44.121094 29.546875 43.695312 28.683594 42.839844 C 27.816406 41.976562 27.386719 40.804688 27.386719 39.324219 C 27.386719 37.804688 27.796875 36.601562 28.621094 35.714844 C 29.441406 34.820312 30.550781 34.371094 31.949219 34.371094 C 33.199219 34.371094 34.183594 34.773438 34.902344 35.574219 C 35.628906 36.378906 35.996094 37.472656 35.996094 38.855469 Z M 34.480469 38.402344 C 34.46875 37.570312 34.234375 36.910156 33.777344 36.417969 C 33.316406 35.917969 32.714844 35.667969 31.964844 35.667969 C 31.109375 35.667969 30.425781 35.910156 29.917969 36.386719 C 29.40625 36.867188 29.109375 37.542969 29.027344 38.417969 Z M 44.441406 34.871094 L 44.441406 36.308594 C 44.003906 36.089844 43.550781 35.925781 43.082031 35.808594 C 42.621094 35.695312 42.144531 35.636719 41.644531 35.636719 C 40.894531 35.636719 40.324219 35.757812 39.941406 35.996094 C 39.566406 36.226562 39.378906 36.574219 39.378906 37.042969 C 39.378906 37.398438 39.511719 37.675781 39.785156 37.871094 C 40.054688 38.070312 40.597656 38.261719 41.410156 38.449219 L 41.941406 38.558594 C 43.023438 38.800781 43.792969 39.132812 44.253906 39.558594 C 44.710938 39.976562 44.941406 40.566406 44.941406 41.324219 C 44.941406 42.191406 44.597656 42.871094 43.910156 43.371094 C 43.230469 43.871094 42.292969 44.121094 41.097656 44.121094 C 40.597656 44.121094 40.074219 44.074219 39.535156 43.980469 C 38.992188 43.886719 38.425781 43.742188 37.832031 43.542969 L 37.832031 41.964844 C 38.394531 42.257812 38.945312 42.480469 39.488281 42.636719 C 40.039062 42.785156 40.585938 42.855469 41.128906 42.855469 C 41.847656 42.855469 42.398438 42.730469 42.785156 42.480469 C 43.167969 42.230469 43.363281 41.882812 43.363281 41.433594 C 43.363281 41.019531 43.222656 40.699219 42.941406 40.480469 C 42.667969 40.261719 42.058594 40.050781 41.113281 39.839844 L 40.582031 39.714844 C 39.632812 39.519531 38.945312 39.214844 38.519531 38.808594 C 38.101562 38.394531 37.894531 37.824219 37.894531 37.105469 C 37.894531 36.230469 38.199219 35.558594 38.816406 35.089844 C 39.441406 34.613281 40.324219 34.371094 41.472656 34.371094 C 42.035156 34.371094 42.558594 34.414062 43.050781 34.496094 C 43.550781 34.582031 44.011719 34.707031 44.441406 34.871094 Z M 48.875 31.949219 L 48.875 34.589844 L 52.03125 34.589844 L 52.03125 35.777344 L 48.875 35.777344 L 48.875 40.824219 C 48.875 41.585938 48.976562 42.074219 49.1875 42.292969 C 49.394531 42.503906 49.816406 42.605469 50.453125 42.605469 L 52.03125 42.605469 L 52.03125 43.886719 L 50.453125 43.886719 C 49.273438 43.886719 48.460938 43.667969 48.015625 43.230469 C 47.566406 42.792969 47.34375 41.992188 47.34375 40.824219 L 47.34375 35.777344 L 46.21875 35.777344 L 46.21875 34.589844 L 47.34375 34.589844 L 47.34375 31.949219 Z M 54.042969 34.589844 L 55.558594 34.589844 L 55.558594 43.886719 L 54.042969 43.886719 Z M 54.042969 30.964844 L 55.558594 30.964844 L 55.558594 32.902344 L 54.042969 32.902344 Z M 62.359375 35.667969 C 61.535156 35.667969 60.882812 35.988281 60.40625 36.621094 C 59.9375 37.257812 59.703125 38.132812 59.703125 39.246094 C 59.703125 40.363281 59.9375 41.242188 60.40625 41.886719 C 60.882812 42.523438 61.535156 42.839844 62.359375 42.839844 C 63.171875 42.839844 63.816406 42.519531 64.296875 41.871094 C 64.773438 41.226562 65.015625 40.351562 65.015625 39.246094 C 65.015625 38.144531 64.773438 37.273438 64.296875 36.636719 C 63.816406 35.992188 63.171875 35.667969 62.359375 35.667969 Z M 62.359375 34.371094 C 63.691406 34.371094 64.734375 34.804688 65.484375 35.667969 C 66.242188 36.523438 66.625 37.714844 66.625 39.246094 C 66.625 40.769531 66.242188 41.960938 65.484375 42.824219 C 64.734375 43.691406 63.691406 44.121094 62.359375 44.121094 C 61.023438 44.121094 59.976562 43.691406 59.21875 42.824219 C 58.46875 41.960938 58.09375 40.769531 58.09375 39.246094 C 58.09375 37.714844 58.46875 36.523438 59.21875 35.667969 C 59.976562 34.804688 61.023438 34.371094 62.359375 34.371094 Z M 76.882812 38.277344 L 76.882812 43.886719 L 75.351562 43.886719 L 75.351562 38.324219 C 75.351562 37.449219 75.179688 36.792969 74.835938 36.355469 C 74.5 35.917969 73.992188 35.699219 73.304688 35.699219 C 72.46875 35.699219 71.8125 35.964844 71.335938 36.496094 C 70.867188 37.019531 70.632812 37.730469 70.632812 38.636719 L 70.632812 43.886719 L 69.101562 43.886719 L 69.101562 34.589844 L 70.632812 34.589844 L 70.632812 36.027344 C 70.996094 35.476562 71.421875 35.066406 71.914062 34.792969 C 72.414062 34.511719 72.984375 34.371094 73.632812 34.371094 C 74.703125 34.371094 75.511719 34.707031 76.054688 35.371094 C 76.605469 36.027344 76.882812 36.996094 76.882812 38.277344 Z M 80.332031 41.777344 L 82.082031 41.777344 L 82.082031 43.199219 L 80.707031 45.855469 L 79.644531 45.855469 L 80.332031 43.199219 Z M 97.433594 34.949219 L 97.433594 36.371094 C 96.996094 36.132812 96.558594 35.957031 96.121094 35.839844 C 95.691406 35.726562 95.253906 35.667969 94.808594 35.667969 C 93.816406 35.667969 93.046875 35.980469 92.496094 36.605469 C 91.953125 37.230469 91.683594 38.113281 91.683594 39.246094 C 91.683594 40.382812 91.953125 41.269531 92.496094 41.902344 C 93.046875 42.527344 93.816406 42.839844 94.808594 42.839844 C 95.253906 42.839844 95.691406 42.785156 96.121094 42.667969 C 96.558594 42.542969 96.996094 42.363281 97.433594 42.121094 L 97.433594 43.527344 C 97.003906 43.726562 96.5625 43.871094 96.105469 43.964844 C 95.644531 44.066406 95.160156 44.121094 94.652344 44.121094 C 93.246094 44.121094 92.128906 43.683594 91.308594 42.808594 C 90.484375 41.925781 90.074219 40.738281 90.074219 39.246094 C 90.074219 37.726562 90.488281 36.535156 91.324219 35.667969 C 92.15625 34.804688 93.296875 34.371094 94.746094 34.371094 C 95.214844 34.371094 95.671875 34.417969 96.121094 34.511719 C 96.566406 34.605469 97.003906 34.753906 97.433594 34.949219 Z M 103.6875 35.667969 C 102.863281 35.667969 102.210938 35.988281 101.734375 36.621094 C 101.265625 37.257812 101.03125 38.132812 101.03125 39.246094 C 101.03125 40.363281 101.265625 41.242188 101.734375 41.886719 C 102.210938 42.523438 102.863281 42.839844 103.6875 42.839844 C 104.5 42.839844 105.144531 42.519531 105.625 41.871094 C 106.101562 41.226562 106.34375 40.351562 106.34375 39.246094 C 106.34375 38.144531 106.101562 37.273438 105.625 36.636719 C 105.144531 35.992188 104.5 35.667969 103.6875 35.667969 Z M 103.6875 34.371094 C 105.019531 34.371094 106.0625 34.804688 106.8125 35.667969 C 107.570312 36.523438 107.953125 37.714844 107.953125 39.246094 C 107.953125 40.769531 107.570312 41.960938 106.8125 42.824219 C 106.0625 43.691406 105.019531 44.121094 103.6875 44.121094 C 102.351562 44.121094 101.304688 43.691406 100.546875 42.824219 C 99.796875 41.960938 99.421875 40.769531 99.421875 39.246094 C 99.421875 37.714844 99.796875 36.523438 100.546875 35.667969 C 101.304688 34.804688 102.351562 34.371094 103.6875 34.371094 Z M 117.730469 36.371094 C 118.105469 35.683594 118.558594 35.179688 119.089844 34.855469 C 119.621094 34.535156 120.25 34.371094 120.980469 34.371094 C 121.9375 34.371094 122.675781 34.710938 123.199219 35.386719 C 123.730469 36.066406 123.996094 37.027344 123.996094 38.277344 L 123.996094 43.886719 L 122.464844 43.886719 L 122.464844 38.324219 C 122.464844 37.441406 122.308594 36.785156 121.996094 36.355469 C 121.683594 35.917969 121.199219 35.699219 120.542969 35.699219 C 119.75 35.699219 119.125 35.964844 118.667969 36.496094 C 118.207031 37.019531 117.980469 37.730469 117.980469 38.636719 L 117.980469 43.886719 L 116.449219 43.886719 L 116.449219 38.324219 C 116.449219 37.429688 116.285156 36.769531 115.964844 36.339844 C 115.652344 35.914062 115.167969 35.699219 114.511719 35.699219 C 113.730469 35.699219 113.109375 35.964844 112.652344 36.496094 C 112.191406 37.019531 111.964844 37.730469 111.964844 38.636719 L 111.964844 43.886719 L 110.433594 43.886719 L 110.433594 34.589844 L 111.964844 34.589844 L 111.964844 36.027344 C 112.316406 35.464844 112.734375 35.050781 113.214844 34.777344 C 113.703125 34.507812 114.28125 34.371094 114.949219 34.371094 C 115.625 34.371094 116.199219 34.542969 116.667969 34.886719 C 117.144531 35.230469 117.5 35.726562 117.730469 36.371094 Z M 134.289062 36.371094 C 134.664062 35.683594 135.117188 35.179688 135.648438 34.855469 C 136.179688 34.535156 136.808594 34.371094 137.539062 34.371094 C 138.496094 34.371094 139.234375 34.710938 139.757812 35.386719 C 140.289062 36.066406 140.554688 37.027344 140.554688 38.277344 L 140.554688 43.886719 L 139.023438 43.886719 L 139.023438 38.324219 C 139.023438 37.441406 138.867188 36.785156 138.554688 36.355469 C 138.242188 35.917969 137.757812 35.699219 137.101562 35.699219 C 136.308594 35.699219 135.683594 35.964844 135.226562 36.496094 C 134.765625 37.019531 134.539062 37.730469 134.539062 38.636719 L 134.539062 43.886719 L 133.007812 43.886719 L 133.007812 38.324219 C 133.007812 37.429688 132.84375 36.769531 132.523438 36.339844 C 132.210938 35.914062 131.726562 35.699219 131.070312 35.699219 C 130.289062 35.699219 129.667969 35.964844 129.210938 36.496094 C 128.75 37.019531 128.523438 37.730469 128.523438 38.636719 L 128.523438 43.886719 L 126.992188 43.886719 L 126.992188 34.589844 L 128.523438 34.589844 L 128.523438 36.027344 C 128.875 35.464844 129.292969 35.050781 129.773438 34.777344 C 130.261719 34.507812 130.839844 34.371094 131.507812 34.371094 C 132.183594 34.371094 132.757812 34.542969 133.226562 34.886719 C 133.703125 35.230469 134.058594 35.726562 134.289062 36.371094 Z M 143.445312 40.214844 L 143.445312 34.589844 L 144.976562 34.589844 L 144.976562 40.152344 C 144.976562 41.039062 145.148438 41.699219 145.492188 42.136719 C 145.835938 42.574219 146.351562 42.792969 147.039062 42.792969 C 147.859375 42.792969 148.511719 42.535156 148.992188 42.011719 C 149.46875 41.480469 149.710938 40.761719 149.710938 39.855469 L 149.710938 34.589844 L 151.242188 34.589844 L 151.242188 43.886719 L 149.710938 43.886719 L 149.710938 42.464844 C 149.335938 43.027344 148.902344 43.445312 148.414062 43.714844 C 147.921875 43.984375 147.355469 44.121094 146.710938 44.121094 C 145.648438 44.121094 144.835938 43.792969 144.273438 43.136719 C 143.71875 42.472656 143.445312 41.496094 143.445312 40.214844 Z M 147.289062 34.371094 Z M 162.109375 38.277344 L 162.109375 43.886719 L 160.578125 43.886719 L 160.578125 38.324219 C 160.578125 37.449219 160.40625 36.792969 160.0625 36.355469 C 159.726562 35.917969 159.21875 35.699219 158.53125 35.699219 C 157.695312 35.699219 157.039062 35.964844 156.5625 36.496094 C 156.09375 37.019531 155.859375 37.730469 155.859375 38.636719 L 155.859375 43.886719 L 154.328125 43.886719 L 154.328125 34.589844 L 155.859375 34.589844 L 155.859375 36.027344 C 156.222656 35.476562 156.648438 35.066406 157.140625 34.792969 C 157.640625 34.511719 158.210938 34.371094 158.859375 34.371094 C 159.929688 34.371094 160.738281 34.707031 161.28125 35.371094 C 161.832031 36.027344 162.109375 36.996094 162.109375 38.277344 Z M 165.164062 34.589844 L 166.679688 34.589844 L 166.679688 43.886719 L 165.164062 43.886719 Z M 165.164062 30.964844 L 166.679688 30.964844 L 166.679688 32.902344 L 165.164062 32.902344 Z M 176.574219 34.949219 L 176.574219 36.371094 C 176.136719 36.132812 175.699219 35.957031 175.261719 35.839844 C 174.832031 35.726562 174.394531 35.667969 173.949219 35.667969 C 172.957031 35.667969 172.1875 35.980469 171.636719 36.605469 C 171.09375 37.230469 170.824219 38.113281 170.824219 39.246094 C 170.824219 40.382812 171.09375 41.269531 171.636719 41.902344 C 172.1875 42.527344 172.957031 42.839844 173.949219 42.839844 C 174.394531 42.839844 174.832031 42.785156 175.261719 42.667969 C 175.699219 42.542969 176.136719 42.363281 176.574219 42.121094 L 176.574219 43.527344 C 176.144531 43.726562 175.703125 43.871094 175.246094 43.964844 C 174.785156 44.066406 174.300781 44.121094 173.792969 44.121094 C 172.386719 44.121094 171.269531 43.683594 170.449219 42.808594 C 169.625 41.925781 169.214844 40.738281 169.214844 39.246094 C 169.214844 37.726562 169.628906 36.535156 170.464844 35.667969 C 171.296875 34.804688 172.4375 34.371094 173.886719 34.371094 C 174.355469 34.371094 174.8125 34.417969 175.261719 34.511719 C 175.707031 34.605469 176.144531 34.753906 176.574219 34.949219 Z M 183.453125 39.214844 C 182.210938 39.214844 181.351562 39.355469 180.875 39.636719 C 180.40625 39.917969 180.171875 40.398438 180.171875 41.074219 C 180.171875 41.617188 180.347656 42.050781 180.703125 42.371094 C 181.066406 42.695312 181.554688 42.855469 182.171875 42.855469 C 183.015625 42.855469 183.691406 42.554688 184.203125 41.949219 C 184.710938 41.347656 184.96875 40.550781 184.96875 39.558594 L 184.96875 39.214844 Z M 186.5 38.589844 L 186.5 43.886719 L 184.96875 43.886719 L 184.96875 42.480469 C 184.625 43.042969 184.191406 43.460938 183.671875 43.730469 C 183.148438 43.988281 182.515625 44.121094 181.765625 44.121094 C 180.804688 44.121094 180.046875 43.855469 179.484375 43.324219 C 178.921875 42.792969 178.640625 42.082031 178.640625 41.183594 C 178.640625 40.132812 178.988281 39.339844 179.6875 38.808594 C 180.394531 38.277344 181.441406 38.011719 182.828125 38.011719 L 184.96875 38.011719 L 184.96875 37.871094 C 184.96875 37.164062 184.734375 36.621094 184.265625 36.246094 C 183.804688 35.863281 183.160156 35.667969 182.328125 35.667969 C 181.796875 35.667969 181.28125 35.730469 180.78125 35.855469 C 180.28125 35.980469 179.796875 36.167969 179.328125 36.417969 L 179.328125 35.011719 C 179.890625 34.792969 180.429688 34.632812 180.953125 34.527344 C 181.484375 34.425781 181.992188 34.371094 182.484375 34.371094 C 183.828125 34.371094 184.832031 34.722656 185.5 35.417969 C 186.164062 36.117188 186.5 37.175781 186.5 38.589844 Z M 191.152344 31.949219 L 191.152344 34.589844 L 194.308594 34.589844 L 194.308594 35.777344 L 191.152344 35.777344 L 191.152344 40.824219 C 191.152344 41.585938 191.253906 42.074219 191.464844 42.292969 C 191.671875 42.503906 192.09375 42.605469 192.730469 42.605469 L 194.308594 42.605469 L 194.308594 43.886719 L 192.730469 43.886719 C 191.550781 43.886719 190.738281 43.667969 190.292969 43.230469 C 189.84375 42.792969 189.621094 41.992188 189.621094 40.824219 L 189.621094 35.777344 L 188.496094 35.777344 L 188.496094 34.589844 L 189.621094 34.589844 L 189.621094 31.949219 Z M 196.316406 34.589844 L 197.832031 34.589844 L 197.832031 43.886719 L 196.316406 43.886719 Z M 196.316406 30.964844 L 197.832031 30.964844 L 197.832031 32.902344 L 196.316406 32.902344 Z M 204.632812 35.667969 C 203.808594 35.667969 203.15625 35.988281 202.679688 36.621094 C 202.210938 37.257812 201.976562 38.132812 201.976562 39.246094 C 201.976562 40.363281 202.210938 41.242188 202.679688 41.886719 C 203.15625 42.523438 203.808594 42.839844 204.632812 42.839844 C 205.445312 42.839844 206.089844 42.519531 206.570312 41.871094 C 207.046875 41.226562 207.289062 40.351562 207.289062 39.246094 C 207.289062 38.144531 207.046875 37.273438 206.570312 36.636719 C 206.089844 35.992188 205.445312 35.667969 204.632812 35.667969 Z M 204.632812 34.371094 C 205.964844 34.371094 207.007812 34.804688 207.757812 35.667969 C 208.515625 36.523438 208.898438 37.714844 208.898438 39.246094 C 208.898438 40.769531 208.515625 41.960938 207.757812 42.824219 C 207.007812 43.691406 205.964844 44.121094 204.632812 44.121094 C 203.296875 44.121094 202.25 43.691406 201.492188 42.824219 C 200.742188 41.960938 200.367188 40.769531 200.367188 39.246094 C 200.367188 37.714844 200.742188 36.523438 201.492188 35.667969 C 202.25 34.804688 203.296875 34.371094 204.632812 34.371094 Z M 219.160156 38.277344 L 219.160156 43.886719 L 217.628906 43.886719 L 217.628906 38.324219 C 217.628906 37.449219 217.457031 36.792969 217.113281 36.355469 C 216.777344 35.917969 216.269531 35.699219 215.582031 35.699219 C 214.746094 35.699219 214.089844 35.964844 213.613281 36.496094 C 213.144531 37.019531 212.910156 37.730469 212.910156 38.636719 L 212.910156 43.886719 L 211.378906 43.886719 L 211.378906 34.589844 L 212.910156 34.589844 L 212.910156 36.027344 C 213.273438 35.476562 213.699219 35.066406 214.191406 34.792969 C 214.691406 34.511719 215.261719 34.371094 215.910156 34.371094 C 216.980469 34.371094 217.789062 34.707031 218.332031 35.371094 C 218.882812 36.027344 219.160156 36.996094 219.160156 38.277344 Z M 235.554688 38.855469 L 235.554688 39.605469 L 228.539062 39.605469 C 228.601562 40.660156 228.914062 41.460938 229.476562 42.011719 C 230.046875 42.566406 230.84375 42.839844 231.867188 42.839844 C 232.449219 42.839844 233.015625 42.769531 233.570312 42.621094 C 234.121094 42.476562 234.667969 42.257812 235.210938 41.964844 L 235.210938 43.417969 C 234.65625 43.648438 234.09375 43.820312 233.523438 43.933594 C 232.949219 44.058594 232.367188 44.121094 231.773438 44.121094 C 230.28125 44.121094 229.105469 43.695312 228.242188 42.839844 C 227.375 41.976562 226.945312 40.804688 226.945312 39.324219 C 226.945312 37.804688 227.355469 36.601562 228.179688 35.714844 C 229 34.820312 230.109375 34.371094 231.507812 34.371094 C 232.757812 34.371094 233.742188 34.773438 234.460938 35.574219 C 235.1875 36.378906 235.554688 37.472656 235.554688 38.855469 Z M 234.039062 38.402344 C 234.027344 37.570312 233.792969 36.910156 233.335938 36.417969 C 232.875 35.917969 232.273438 35.667969 231.523438 35.667969 C 230.667969 35.667969 229.984375 35.910156 229.476562 36.386719 C 228.964844 36.867188 228.667969 37.542969 228.585938 38.417969 Z M 239.578125 31.949219 L 239.578125 34.589844 L 242.734375 34.589844 L 242.734375 35.777344 L 239.578125 35.777344 L 239.578125 40.824219 C 239.578125 41.585938 239.679688 42.074219 239.890625 42.292969 C 240.097656 42.503906 240.519531 42.605469 241.15625 42.605469 L 242.734375 42.605469 L 242.734375 43.886719 L 241.15625 43.886719 C 239.976562 43.886719 239.164062 43.667969 238.71875 43.230469 C 238.269531 42.792969 238.046875 41.992188 238.046875 40.824219 L 238.046875 35.777344 L 236.921875 35.777344 L 236.921875 34.589844 L 238.046875 34.589844 L 238.046875 31.949219 Z M 251.617188 42.496094 L 251.617188 47.417969 L 250.085938 47.417969 L 250.085938 34.589844 L 251.617188 34.589844 L 251.617188 35.996094 C 251.9375 35.445312 252.34375 35.039062 252.835938 34.777344 C 253.324219 34.507812 253.90625 34.371094 254.585938 34.371094 C 255.71875 34.371094 256.636719 34.820312 257.335938 35.714844 C 258.042969 36.613281 258.398438 37.789062 258.398438 39.246094 C 258.398438 40.707031 258.042969 41.882812 257.335938 42.777344 C 256.636719 43.675781 255.71875 44.121094 254.585938 44.121094 C 253.90625 44.121094 253.324219 43.988281 252.835938 43.730469 C 252.34375 43.460938 251.9375 43.050781 251.617188 42.496094 Z M 256.820312 39.246094 C 256.820312 38.121094 256.585938 37.242188 256.117188 36.605469 C 255.65625 35.960938 255.023438 35.636719 254.210938 35.636719 C 253.40625 35.636719 252.773438 35.960938 252.304688 36.605469 C 251.84375 37.242188 251.617188 38.121094 251.617188 39.246094 C 251.617188 40.371094 251.84375 41.257812 252.304688 41.902344 C 252.773438 42.539062 253.40625 42.855469 254.210938 42.855469 C 255.023438 42.855469 255.65625 42.539062 256.117188 41.902344 C 256.585938 41.257812 256.820312 40.371094 256.820312 39.246094 Z M 266.3125 36.011719 C 266.144531 35.917969 265.957031 35.851562 265.75 35.808594 C 265.550781 35.757812 265.332031 35.730469 265.09375 35.730469 C 264.226562 35.730469 263.5625 36.011719 263.09375 36.574219 C 262.632812 37.136719 262.40625 37.945312 262.40625 38.996094 L 262.40625 43.886719 L 260.875 43.886719 L 260.875 34.589844 L 262.40625 34.589844 L 262.40625 36.027344 C 262.726562 35.464844 263.144531 35.050781 263.65625 34.777344 C 264.175781 34.507812 264.800781 34.371094 265.53125 34.371094 C 265.632812 34.371094 265.75 34.378906 265.875 34.386719 C 266.007812 34.398438 266.15625 34.417969 266.3125 34.449219 Z M 275.867188 38.855469 L 275.867188 39.605469 L 268.851562 39.605469 C 268.914062 40.660156 269.226562 41.460938 269.789062 42.011719 C 270.359375 42.566406 271.15625 42.839844 272.179688 42.839844 C 272.761719 42.839844 273.328125 42.769531 273.882812 42.621094 C 274.433594 42.476562 274.980469 42.257812 275.523438 41.964844 L 275.523438 43.417969 C 274.96875 43.648438 274.40625 43.820312 273.835938 43.933594 C 273.261719 44.058594 272.679688 44.121094 272.085938 44.121094 C 270.59375 44.121094 269.417969 43.695312 268.554688 42.839844 C 267.6875 41.976562 267.257812 40.804688 267.257812 39.324219 C 267.257812 37.804688 267.667969 36.601562 268.492188 35.714844 C 269.3125 34.820312 270.421875 34.371094 271.820312 34.371094 C 273.070312 34.371094 274.054688 34.773438 274.773438 35.574219 C 275.5 36.378906 275.867188 37.472656 275.867188 38.855469 Z M 274.351562 38.402344 C 274.339844 37.570312 274.105469 36.910156 273.648438 36.417969 C 273.1875 35.917969 272.585938 35.667969 271.835938 35.667969 C 270.980469 35.667969 270.296875 35.910156 269.789062 36.386719 C 269.277344 36.867188 268.980469 37.542969 268.898438 38.417969 Z M 272.882812 30.292969 L 274.539062 30.292969 L 271.820312 33.417969 L 270.554688 33.417969 Z M 284.308594 34.871094 L 284.308594 36.308594 C 283.871094 36.089844 283.417969 35.925781 282.949219 35.808594 C 282.488281 35.695312 282.011719 35.636719 281.511719 35.636719 C 280.761719 35.636719 280.191406 35.757812 279.808594 35.996094 C 279.433594 36.226562 279.246094 36.574219 279.246094 37.042969 C 279.246094 37.398438 279.378906 37.675781 279.652344 37.871094 C 279.921875 38.070312 280.464844 38.261719 281.277344 38.449219 L 281.808594 38.558594 C 282.890625 38.800781 283.660156 39.132812 284.121094 39.558594 C 284.578125 39.976562 284.808594 40.566406 284.808594 41.324219 C 284.808594 42.191406 284.464844 42.871094 283.777344 43.371094 C 283.097656 43.871094 282.160156 44.121094 280.964844 44.121094 C 280.464844 44.121094 279.941406 44.074219 279.402344 43.980469 C 278.859375 43.886719 278.292969 43.742188 277.699219 43.542969 L 277.699219 41.964844 C 278.261719 42.257812 278.8125 42.480469 279.355469 42.636719 C 279.90625 42.785156 280.453125 42.855469 280.996094 42.855469 C 281.714844 42.855469 282.265625 42.730469 282.652344 42.480469 C 283.035156 42.230469 283.230469 41.882812 283.230469 41.433594 C 283.230469 41.019531 283.089844 40.699219 282.808594 40.480469 C 282.535156 40.261719 281.925781 40.050781 280.980469 39.839844 L 280.449219 39.714844 C 279.5 39.519531 278.8125 39.214844 278.386719 38.808594 C 277.96875 38.394531 277.761719 37.824219 277.761719 37.105469 C 277.761719 36.230469 278.066406 35.558594 278.683594 35.089844 C 279.308594 34.613281 280.191406 34.371094 281.339844 34.371094 C 281.902344 34.371094 282.425781 34.414062 282.917969 34.496094 C 283.417969 34.582031 283.878906 34.707031 284.308594 34.871094 Z M 295.179688 38.855469 L 295.179688 39.605469 L 288.164062 39.605469 C 288.226562 40.660156 288.539062 41.460938 289.101562 42.011719 C 289.671875 42.566406 290.46875 42.839844 291.492188 42.839844 C 292.074219 42.839844 292.640625 42.769531 293.195312 42.621094 C 293.746094 42.476562 294.292969 42.257812 294.835938 41.964844 L 294.835938 43.417969 C 294.28125 43.648438 293.71875 43.820312 293.148438 43.933594 C 292.574219 44.058594 291.992188 44.121094 291.398438 44.121094 C 289.90625 44.121094 288.730469 43.695312 287.867188 42.839844 C 287 41.976562 286.570312 40.804688 286.570312 39.324219 C 286.570312 37.804688 286.980469 36.601562 287.804688 35.714844 C 288.625 34.820312 289.734375 34.371094 291.132812 34.371094 C 292.382812 34.371094 293.367188 34.773438 294.085938 35.574219 C 294.8125 36.378906 295.179688 37.472656 295.179688 38.855469 Z M 293.664062 38.402344 C 293.652344 37.570312 293.417969 36.910156 292.960938 36.417969 C 292.5 35.917969 291.898438 35.667969 291.148438 35.667969 C 290.292969 35.667969 289.609375 35.910156 289.101562 36.386719 C 288.589844 36.867188 288.292969 37.542969 288.210938 38.417969 Z M 305.421875 38.277344 L 305.421875 43.886719 L 303.890625 43.886719 L 303.890625 38.324219 C 303.890625 37.449219 303.71875 36.792969 303.375 36.355469 C 303.039062 35.917969 302.53125 35.699219 301.84375 35.699219 C 301.007812 35.699219 300.351562 35.964844 299.875 36.496094 C 299.40625 37.019531 299.171875 37.730469 299.171875 38.636719 L 299.171875 43.886719 L 297.640625 43.886719 L 297.640625 34.589844 L 299.171875 34.589844 L 299.171875 36.027344 C 299.535156 35.476562 299.960938 35.066406 300.453125 34.792969 C 300.953125 34.511719 301.523438 34.371094 302.171875 34.371094 C 303.242188 34.371094 304.050781 34.707031 304.59375 35.371094 C 305.144531 36.027344 305.421875 36.996094 305.421875 38.277344 Z M 315.164062 34.949219 L 315.164062 36.371094 C 314.726562 36.132812 314.289062 35.957031 313.851562 35.839844 C 313.421875 35.726562 312.984375 35.667969 312.539062 35.667969 C 311.546875 35.667969 310.777344 35.980469 310.226562 36.605469 C 309.683594 37.230469 309.414062 38.113281 309.414062 39.246094 C 309.414062 40.382812 309.683594 41.269531 310.226562 41.902344 C 310.777344 42.527344 311.546875 42.839844 312.539062 42.839844 C 312.984375 42.839844 313.421875 42.785156 313.851562 42.667969 C 314.289062 42.542969 314.726562 42.363281 315.164062 42.121094 L 315.164062 43.527344 C 314.734375 43.726562 314.292969 43.871094 313.835938 43.964844 C 313.375 44.066406 312.890625 44.121094 312.382812 44.121094 C 310.976562 44.121094 309.859375 43.683594 309.039062 42.808594 C 308.214844 41.925781 307.804688 40.738281 307.804688 39.246094 C 307.804688 37.726562 308.21875 36.535156 309.054688 35.667969 C 309.886719 34.804688 311.027344 34.371094 312.476562 34.371094 C 312.945312 34.371094 313.402344 34.417969 313.851562 34.511719 C 314.296875 34.605469 314.734375 34.753906 315.164062 34.949219 Z M 325.761719 38.855469 L 325.761719 39.605469 L 318.746094 39.605469 C 318.808594 40.660156 319.121094 41.460938 319.683594 42.011719 C 320.253906 42.566406 321.050781 42.839844 322.074219 42.839844 C 322.65625 42.839844 323.222656 42.769531 323.777344 42.621094 C 324.328125 42.476562 324.875 42.257812 325.417969 41.964844 L 325.417969 43.417969 C 324.863281 43.648438 324.300781 43.820312 323.730469 43.933594 C 323.15625 44.058594 322.574219 44.121094 321.980469 44.121094 C 320.488281 44.121094 319.3125 43.695312 318.449219 42.839844 C 317.582031 41.976562 317.152344 40.804688 317.152344 39.324219 C 317.152344 37.804688 317.5625 36.601562 318.386719 35.714844 C 319.207031 34.820312 320.316406 34.371094 321.714844 34.371094 C 322.964844 34.371094 323.949219 34.773438 324.667969 35.574219 C 325.394531 36.378906 325.761719 37.472656 325.761719 38.855469 Z M 324.246094 38.402344 C 324.234375 37.570312 324 36.910156 323.542969 36.417969 C 323.082031 35.917969 322.480469 35.667969 321.730469 35.667969 C 320.875 35.667969 320.191406 35.910156 319.683594 36.386719 C 319.171875 36.867188 318.875 37.542969 318.792969 38.417969 Z M 326.671875 43.886719 " />
<path fill-rule="nonzero" fill="rgb(94.117647%, 95.294118%, 96.470588%)" fill-opacity="1" d="M 63.90625 62.277344 L 63.90625 67.886719 L 62.375 67.886719 L 62.375 62.324219 C 62.375 61.449219 62.203125 60.792969 61.859375 60.355469 C 61.523438 59.917969 61.015625 59.699219 60.328125 59.699219 C 59.492188 59.699219 58.835938 59.964844 58.359375 60.496094 C 57.890625 61.019531 57.65625 61.730469 57.65625 62.636719 L 57.65625 67.886719 L 56.125 67.886719 L 56.125 58.589844 L 57.65625 58.589844 L 57.65625 60.027344 C 58.019531 59.476562 58.445312 59.066406 58.9375 58.792969 C 59.4375 58.511719 60.007812 58.371094 60.65625 58.371094 C 61.726562 58.371094 62.535156 58.707031 63.078125 59.371094 C 63.628906 60.027344 63.90625 60.996094 63.90625 62.277344 Z M 66.789062 64.214844 L 66.789062 58.589844 L 68.320312 58.589844 L 68.320312 64.152344 C 68.320312 65.039062 68.492188 65.699219 68.835938 66.136719 C 69.179688 66.574219 69.695312 66.792969 70.382812 66.792969 C 71.203125 66.792969 71.855469 66.535156 72.335938 66.011719 C 72.8125 65.480469 73.054688 64.761719 73.054688 63.855469 L 73.054688 58.589844 L 74.585938 58.589844 L 74.585938 67.886719 L 73.054688 67.886719 L 73.054688 66.464844 C 72.679688 67.027344 72.246094 67.445312 71.757812 67.714844 C 71.265625 67.984375 70.699219 68.121094 70.054688 68.121094 C 68.992188 68.121094 68.179688 67.792969 67.617188 67.136719 C 67.0625 66.472656 66.789062 65.496094 66.789062 64.214844 Z M 70.632812 58.371094 Z M 84.96875 60.371094 C 85.34375 59.683594 85.796875 59.179688 86.328125 58.855469 C 86.859375 58.535156 87.488281 58.371094 88.21875 58.371094 C 89.175781 58.371094 89.914062 58.710938 90.4375 59.386719 C 90.96875 60.066406 91.234375 61.027344 91.234375 62.277344 L 91.234375 67.886719 L 89.703125 67.886719 L 89.703125 62.324219 C 89.703125 61.441406 89.546875 60.785156 89.234375 60.355469 C 88.921875 59.917969 88.4375 59.699219 87.78125 59.699219 C 86.988281 59.699219 86.363281 59.964844 85.90625 60.496094 C 85.445312 61.019531 85.21875 61.730469 85.21875 62.636719 L 85.21875 67.886719 L 83.6875 67.886719 L 83.6875 62.324219 C 83.6875 61.429688 83.523438 60.769531 83.203125 60.339844 C 82.890625 59.914062 82.40625 59.699219 81.75 59.699219 C 80.96875 59.699219 80.347656 59.964844 79.890625 60.496094 C 79.429688 61.019531 79.203125 61.730469 79.203125 62.636719 L 79.203125 67.886719 L 77.671875 67.886719 L 77.671875 58.589844 L 79.203125 58.589844 L 79.203125 60.027344 C 79.554688 59.464844 79.972656 59.050781 80.453125 58.777344 C 80.941406 58.507812 81.519531 58.371094 82.1875 58.371094 C 82.863281 58.371094 83.4375 58.542969 83.90625 58.886719 C 84.382812 59.230469 84.738281 59.726562 84.96875 60.371094 Z M 102.234375 62.855469 L 102.234375 63.605469 L 95.21875 63.605469 C 95.28125 64.660156 95.59375 65.460938 96.15625 66.011719 C 96.726562 66.566406 97.523438 66.839844 98.546875 66.839844 C 99.128906 66.839844 99.695312 66.769531 100.25 66.621094 C 100.800781 66.476562 101.347656 66.257812 101.890625 65.964844 L 101.890625 67.417969 C 101.335938 67.648438 100.773438 67.820312 100.203125 67.933594 C 99.628906 68.058594 99.046875 68.121094 98.453125 68.121094 C 96.960938 68.121094 95.785156 67.695312 94.921875 66.839844 C 94.054688 65.976562 93.625 64.804688 93.625 63.324219 C 93.625 61.804688 94.035156 60.601562 94.859375 59.714844 C 95.679688 58.820312 96.789062 58.371094 98.1875 58.371094 C 99.4375 58.371094 100.421875 58.773438 101.140625 59.574219 C 101.867188 60.378906 102.234375 61.472656 102.234375 62.855469 Z M 100.71875 62.402344 C 100.707031 61.570312 100.472656 60.910156 100.015625 60.417969 C 99.554688 59.917969 98.953125 59.667969 98.203125 59.667969 C 97.347656 59.667969 96.664062 59.910156 96.15625 60.386719 C 95.644531 60.867188 95.347656 61.542969 95.265625 62.417969 Z M 99.25 54.292969 L 100.90625 54.292969 L 98.1875 57.417969 L 96.921875 57.417969 Z M 110.128906 60.011719 C 109.960938 59.917969 109.773438 59.851562 109.566406 59.808594 C 109.367188 59.757812 109.148438 59.730469 108.910156 59.730469 C 108.042969 59.730469 107.378906 60.011719 106.910156 60.574219 C 106.449219 61.136719 106.222656 61.945312 106.222656 62.996094 L 106.222656 67.886719 L 104.691406 67.886719 L 104.691406 58.589844 L 106.222656 58.589844 L 106.222656 60.027344 C 106.542969 59.464844 106.960938 59.050781 107.472656 58.777344 C 107.992188 58.507812 108.617188 58.371094 109.347656 58.371094 C 109.449219 58.371094 109.566406 58.378906 109.691406 58.386719 C 109.824219 58.398438 109.972656 58.417969 110.128906 58.449219 Z M 111.746094 58.589844 L 113.261719 58.589844 L 113.261719 67.886719 L 111.746094 67.886719 Z M 111.746094 54.964844 L 113.261719 54.964844 L 113.261719 56.902344 L 111.746094 56.902344 Z M 117.375 63.246094 C 117.375 64.371094 117.601562 65.257812 118.0625 65.902344 C 118.53125 66.539062 119.164062 66.855469 119.96875 66.855469 C 120.78125 66.855469 121.414062 66.539062 121.875 65.902344 C 122.34375 65.257812 122.578125 64.371094 122.578125 63.246094 C 122.578125 62.121094 122.34375 61.242188 121.875 60.605469 C 121.414062 59.960938 120.78125 59.636719 119.96875 59.636719 C 119.164062 59.636719 118.53125 59.960938 118.0625 60.605469 C 117.601562 61.242188 117.375 62.121094 117.375 63.246094 Z M 122.578125 66.496094 C 122.253906 67.050781 121.847656 67.460938 121.359375 67.730469 C 120.867188 67.988281 120.28125 68.121094 119.59375 68.121094 C 118.476562 68.121094 117.566406 67.675781 116.859375 66.777344 C 116.148438 65.882812 115.796875 64.707031 115.796875 63.246094 C 115.796875 61.789062 116.148438 60.613281 116.859375 59.714844 C 117.566406 58.820312 118.476562 58.371094 119.59375 58.371094 C 120.28125 58.371094 120.867188 58.507812 121.359375 58.777344 C 121.847656 59.039062 122.253906 59.445312 122.578125 59.996094 L 122.578125 58.589844 L 124.109375 58.589844 L 124.109375 71.417969 L 122.578125 71.417969 Z M 127.085938 64.214844 L 127.085938 58.589844 L 128.617188 58.589844 L 128.617188 64.152344 C 128.617188 65.039062 128.789062 65.699219 129.132812 66.136719 C 129.476562 66.574219 129.992188 66.792969 130.679688 66.792969 C 131.5 66.792969 132.152344 66.535156 132.632812 66.011719 C 133.109375 65.480469 133.351562 64.761719 133.351562 63.855469 L 133.351562 58.589844 L 134.882812 58.589844 L 134.882812 67.886719 L 133.351562 67.886719 L 133.351562 66.464844 C 132.976562 67.027344 132.542969 67.445312 132.054688 67.714844 C 131.5625 67.984375 130.996094 68.121094 130.351562 68.121094 C 129.289062 68.121094 128.476562 67.792969 127.914062 67.136719 C 127.359375 66.472656 127.085938 65.496094 127.085938 64.214844 Z M 130.929688 58.371094 Z M 145.96875 62.855469 L 145.96875 63.605469 L 138.953125 63.605469 C 139.015625 64.660156 139.328125 65.460938 139.890625 66.011719 C 140.460938 66.566406 141.257812 66.839844 142.28125 66.839844 C 142.863281 66.839844 143.429688 66.769531 143.984375 66.621094 C 144.535156 66.476562 145.082031 66.257812 145.625 65.964844 L 145.625 67.417969 C 145.070312 67.648438 144.507812 67.820312 143.9375 67.933594 C 143.363281 68.058594 142.78125 68.121094 142.1875 68.121094 C 140.695312 68.121094 139.519531 67.695312 138.65625 66.839844 C 137.789062 65.976562 137.359375 64.804688 137.359375 63.324219 C 137.359375 61.804688 137.769531 60.601562 138.59375 59.714844 C 139.414062 58.820312 140.523438 58.371094 141.921875 58.371094 C 143.171875 58.371094 144.15625 58.773438 144.875 59.574219 C 145.601562 60.378906 145.96875 61.472656 145.96875 62.855469 Z M 144.453125 62.402344 C 144.441406 61.570312 144.207031 60.910156 143.75 60.417969 C 143.289062 59.917969 142.6875 59.667969 141.9375 59.667969 C 141.082031 59.667969 140.398438 59.910156 139.890625 60.386719 C 139.378906 60.867188 139.082031 61.542969 139 62.417969 Z M 155.363281 66.496094 L 155.363281 71.417969 L 153.832031 71.417969 L 153.832031 58.589844 L 155.363281 58.589844 L 155.363281 59.996094 C 155.683594 59.445312 156.089844 59.039062 156.582031 58.777344 C 157.070312 58.507812 157.652344 58.371094 158.332031 58.371094 C 159.464844 58.371094 160.382812 58.820312 161.082031 59.714844 C 161.789062 60.613281 162.144531 61.789062 162.144531 63.246094 C 162.144531 64.707031 161.789062 65.882812 161.082031 66.777344 C 160.382812 67.675781 159.464844 68.121094 158.332031 68.121094 C 157.652344 68.121094 157.070312 67.988281 156.582031 67.730469 C 156.089844 67.460938 155.683594 67.050781 155.363281 66.496094 Z M 160.566406 63.246094 C 160.566406 62.121094 160.332031 61.242188 159.863281 60.605469 C 159.402344 59.960938 158.769531 59.636719 157.957031 59.636719 C 157.152344 59.636719 156.519531 59.960938 156.050781 60.605469 C 155.589844 61.242188 155.363281 62.121094 155.363281 63.246094 C 155.363281 64.371094 155.589844 65.257812 156.050781 65.902344 C 156.519531 66.539062 157.152344 66.855469 157.957031 66.855469 C 158.769531 66.855469 159.402344 66.539062 159.863281 65.902344 C 160.332031 65.257812 160.566406 64.371094 160.566406 63.246094 Z M 168.28125 59.667969 C 167.457031 59.667969 166.804688 59.988281 166.328125 60.621094 C 165.859375 61.257812 165.625 62.132812 165.625 63.246094 C 165.625 64.363281 165.859375 65.242188 166.328125 65.886719 C 166.804688 66.523438 167.457031 66.839844 168.28125 66.839844 C 169.09375 66.839844 169.738281 66.519531 170.21875 65.871094 C 170.695312 65.226562 170.9375 64.351562 170.9375 63.246094 C 170.9375 62.144531 170.695312 61.273438 170.21875 60.636719 C 169.738281 59.992188 169.09375 59.667969 168.28125 59.667969 Z M 168.28125 58.371094 C 169.613281 58.371094 170.65625 58.804688 171.40625 59.667969 C 172.164062 60.523438 172.546875 61.714844 172.546875 63.246094 C 172.546875 64.769531 172.164062 65.960938 171.40625 66.824219 C 170.65625 67.691406 169.613281 68.121094 168.28125 68.121094 C 166.945312 68.121094 165.898438 67.691406 165.140625 66.824219 C 164.390625 65.960938 164.015625 64.769531 164.015625 63.246094 C 164.015625 61.714844 164.390625 60.523438 165.140625 59.667969 C 165.898438 58.804688 166.945312 58.371094 168.28125 58.371094 Z M 174.914062 64.214844 L 174.914062 58.589844 L 176.445312 58.589844 L 176.445312 64.152344 C 176.445312 65.039062 176.617188 65.699219 176.960938 66.136719 C 177.304688 66.574219 177.820312 66.792969 178.507812 66.792969 C 179.328125 66.792969 179.980469 66.535156 180.460938 66.011719 C 180.9375 65.480469 181.179688 64.761719 181.179688 63.855469 L 181.179688 58.589844 L 182.710938 58.589844 L 182.710938 67.886719 L 181.179688 67.886719 L 181.179688 66.464844 C 180.804688 67.027344 180.371094 67.445312 179.882812 67.714844 C 179.390625 67.984375 178.824219 68.121094 178.179688 68.121094 C 177.117188 68.121094 176.304688 67.792969 175.742188 67.136719 C 175.1875 66.472656 174.914062 65.496094 174.914062 64.214844 Z M 178.757812 58.371094 Z M 191.238281 60.011719 C 191.070312 59.917969 190.882812 59.851562 190.675781 59.808594 C 190.476562 59.757812 190.257812 59.730469 190.019531 59.730469 C 189.152344 59.730469 188.488281 60.011719 188.019531 60.574219 C 187.558594 61.136719 187.332031 61.945312 187.332031 62.996094 L 187.332031 67.886719 L 185.800781 67.886719 L 185.800781 58.589844 L 187.332031 58.589844 L 187.332031 60.027344 C 187.652344 59.464844 188.070312 59.050781 188.582031 58.777344 C 189.101562 58.507812 189.726562 58.371094 190.457031 58.371094 C 190.558594 58.371094 190.675781 58.378906 190.800781 58.386719 C 190.933594 58.398438 191.082031 58.417969 191.238281 58.449219 Z M 198.253906 54.964844 L 199.769531 54.964844 L 199.769531 67.886719 L 198.253906 67.886719 Z M 210.914062 62.855469 L 210.914062 63.605469 L 203.898438 63.605469 C 203.960938 64.660156 204.273438 65.460938 204.835938 66.011719 C 205.40625 66.566406 206.203125 66.839844 207.226562 66.839844 C 207.808594 66.839844 208.375 66.769531 208.929688 66.621094 C 209.480469 66.476562 210.027344 66.257812 210.570312 65.964844 L 210.570312 67.417969 C 210.015625 67.648438 209.453125 67.820312 208.882812 67.933594 C 208.308594 68.058594 207.726562 68.121094 207.132812 68.121094 C 205.640625 68.121094 204.464844 67.695312 203.601562 66.839844 C 202.734375 65.976562 202.304688 64.804688 202.304688 63.324219 C 202.304688 61.804688 202.714844 60.601562 203.539062 59.714844 C 204.359375 58.820312 205.46875 58.371094 206.867188 58.371094 C 208.117188 58.371094 209.101562 58.773438 209.820312 59.574219 C 210.546875 60.378906 210.914062 61.472656 210.914062 62.855469 Z M 209.398438 62.402344 C 209.386719 61.570312 209.152344 60.910156 208.695312 60.417969 C 208.234375 59.917969 207.632812 59.667969 206.882812 59.667969 C 206.027344 59.667969 205.34375 59.910156 204.835938 60.386719 C 204.324219 60.867188 204.027344 61.542969 203.945312 62.417969 Z M 219.359375 58.871094 L 219.359375 60.308594 C 218.921875 60.089844 218.46875 59.925781 218 59.808594 C 217.539062 59.695312 217.0625 59.636719 216.5625 59.636719 C 215.8125 59.636719 215.242188 59.757812 214.859375 59.996094 C 214.484375 60.226562 214.296875 60.574219 214.296875 61.042969 C 214.296875 61.398438 214.429688 61.675781 214.703125 61.871094 C 214.972656 62.070312 215.515625 62.261719 216.328125 62.449219 L 216.859375 62.558594 C 217.941406 62.800781 218.710938 63.132812 219.171875 63.558594 C 219.628906 63.976562 219.859375 64.566406 219.859375 65.324219 C 219.859375 66.191406 219.515625 66.871094 218.828125 67.371094 C 218.148438 67.871094 217.210938 68.121094 216.015625 68.121094 C 215.515625 68.121094 214.992188 68.074219 214.453125 67.980469 C 213.910156 67.886719 213.34375 67.742188 212.75 67.542969 L 212.75 65.964844 C 213.3125 66.257812 213.863281 66.480469 214.40625 66.636719 C 214.957031 66.785156 215.503906 66.855469 216.046875 66.855469 C 216.765625 66.855469 217.316406 66.730469 217.703125 66.480469 C 218.085938 66.230469 218.28125 65.882812 218.28125 65.433594 C 218.28125 65.019531 218.140625 64.699219 217.859375 64.480469 C 217.585938 64.261719 216.976562 64.050781 216.03125 63.839844 L 215.5 63.714844 C 214.550781 63.519531 213.863281 63.214844 213.4375 62.808594 C 213.019531 62.394531 212.8125 61.824219 212.8125 61.105469 C 212.8125 60.230469 213.117188 59.558594 213.734375 59.089844 C 214.359375 58.613281 215.242188 58.371094 216.390625 58.371094 C 216.953125 58.371094 217.476562 58.414062 217.96875 58.496094 C 218.46875 58.582031 218.929688 58.707031 219.359375 58.871094 Z M 229.167969 66.496094 L 229.167969 71.417969 L 227.636719 71.417969 L 227.636719 58.589844 L 229.167969 58.589844 L 229.167969 59.996094 C 229.488281 59.445312 229.894531 59.039062 230.386719 58.777344 C 230.875 58.507812 231.457031 58.371094 232.136719 58.371094 C 233.269531 58.371094 234.1875 58.820312 234.886719 59.714844 C 235.59375 60.613281 235.949219 61.789062 235.949219 63.246094 C 235.949219 64.707031 235.59375 65.882812 234.886719 66.777344 C 234.1875 67.675781 233.269531 68.121094 232.136719 68.121094 C 231.457031 68.121094 230.875 67.988281 230.386719 67.730469 C 229.894531 67.460938 229.488281 67.050781 229.167969 66.496094 Z M 234.371094 63.246094 C 234.371094 62.121094 234.136719 61.242188 233.667969 60.605469 C 233.207031 59.960938 232.574219 59.636719 231.761719 59.636719 C 230.957031 59.636719 230.324219 59.960938 229.855469 60.605469 C 229.394531 61.242188 229.167969 62.121094 229.167969 63.246094 C 229.167969 64.371094 229.394531 65.257812 229.855469 65.902344 C 230.324219 66.539062 230.957031 66.855469 231.761719 66.855469 C 232.574219 66.855469 233.207031 66.539062 233.667969 65.902344 C 234.136719 65.257812 234.371094 64.371094 234.371094 63.246094 Z M 246.425781 62.855469 L 246.425781 63.605469 L 239.410156 63.605469 C 239.472656 64.660156 239.785156 65.460938 240.347656 66.011719 C 240.917969 66.566406 241.714844 66.839844 242.738281 66.839844 C 243.320312 66.839844 243.886719 66.769531 244.441406 66.621094 C 244.992188 66.476562 245.539062 66.257812 246.082031 65.964844 L 246.082031 67.417969 C 245.527344 67.648438 244.964844 67.820312 244.394531 67.933594 C 243.820312 68.058594 243.238281 68.121094 242.644531 68.121094 C 241.152344 68.121094 239.976562 67.695312 239.113281 66.839844 C 238.246094 65.976562 237.816406 64.804688 237.816406 63.324219 C 237.816406 61.804688 238.226562 60.601562 239.050781 59.714844 C 239.871094 58.820312 240.980469 58.371094 242.378906 58.371094 C 243.628906 58.371094 244.613281 58.773438 245.332031 59.574219 C 246.058594 60.378906 246.425781 61.472656 246.425781 62.855469 Z M 244.910156 62.402344 C 244.898438 61.570312 244.664062 60.910156 244.207031 60.417969 C 243.746094 59.917969 243.144531 59.667969 242.394531 59.667969 C 241.539062 59.667969 240.855469 59.910156 240.347656 60.386719 C 239.835938 60.867188 239.539062 61.542969 239.457031 62.417969 Z M 250.449219 55.949219 L 250.449219 58.589844 L 253.605469 58.589844 L 253.605469 59.777344 L 250.449219 59.777344 L 250.449219 64.824219 C 250.449219 65.585938 250.550781 66.074219 250.761719 66.292969 C 250.96875 66.503906 251.390625 66.605469 252.027344 66.605469 L 253.605469 66.605469 L 253.605469 67.886719 L 252.027344 67.886719 C 250.847656 67.886719 250.035156 67.667969 249.589844 67.230469 C 249.140625 66.792969 248.917969 65.992188 248.917969 64.824219 L 248.917969 59.777344 L 247.792969 59.777344 L 247.792969 58.589844 L 248.917969 58.589844 L 248.917969 55.949219 Z M 255.613281 58.589844 L 257.128906 58.589844 L 257.128906 67.886719 L 255.613281 67.886719 Z M 255.613281 54.964844 L 257.128906 54.964844 L 257.128906 56.902344 L 255.613281 56.902344 Z M 261.835938 55.949219 L 261.835938 58.589844 L 264.992188 58.589844 L 264.992188 59.777344 L 261.835938 59.777344 L 261.835938 64.824219 C 261.835938 65.585938 261.9375 66.074219 262.148438 66.292969 C 262.355469 66.503906 262.777344 66.605469 263.414062 66.605469 L 264.992188 66.605469 L 264.992188 67.886719 L 263.414062 67.886719 C 262.234375 67.886719 261.421875 67.667969 260.976562 67.230469 C 260.527344 66.792969 260.304688 65.992188 260.304688 64.824219 L 260.304688 59.777344 L 259.179688 59.777344 L 259.179688 58.589844 L 260.304688 58.589844 L 260.304688 55.949219 Z M 274.941406 62.855469 L 274.941406 63.605469 L 267.925781 63.605469 C 267.988281 64.660156 268.300781 65.460938 268.863281 66.011719 C 269.433594 66.566406 270.230469 66.839844 271.253906 66.839844 C 271.835938 66.839844 272.402344 66.769531 272.957031 66.621094 C 273.507812 66.476562 274.054688 66.257812 274.597656 65.964844 L 274.597656 67.417969 C 274.042969 67.648438 273.480469 67.820312 272.910156 67.933594 C 272.335938 68.058594 271.753906 68.121094 271.160156 68.121094 C 269.667969 68.121094 268.492188 67.695312 267.628906 66.839844 C 266.761719 65.976562 266.332031 64.804688 266.332031 63.324219 C 266.332031 61.804688 266.742188 60.601562 267.566406 59.714844 C 268.386719 58.820312 269.496094 58.371094 270.894531 58.371094 C 272.144531 58.371094 273.128906 58.773438 273.847656 59.574219 C 274.574219 60.378906 274.941406 61.472656 274.941406 62.855469 Z M 273.425781 62.402344 C 273.414062 61.570312 273.179688 60.910156 272.722656 60.417969 C 272.261719 59.917969 271.660156 59.667969 270.910156 59.667969 C 270.054688 59.667969 269.371094 59.910156 268.863281 60.386719 C 268.351562 60.867188 268.054688 61.542969 267.972656 62.417969 Z M 283.382812 58.871094 L 283.382812 60.308594 C 282.945312 60.089844 282.492188 59.925781 282.023438 59.808594 C 281.5625 59.695312 281.085938 59.636719 280.585938 59.636719 C 279.835938 59.636719 279.265625 59.757812 278.882812 59.996094 C 278.507812 60.226562 278.320312 60.574219 278.320312 61.042969 C 278.320312 61.398438 278.453125 61.675781 278.726562 61.871094 C 278.996094 62.070312 279.539062 62.261719 280.351562 62.449219 L 280.882812 62.558594 C 281.964844 62.800781 282.734375 63.132812 283.195312 63.558594 C 283.652344 63.976562 283.882812 64.566406 283.882812 65.324219 C 283.882812 66.191406 283.539062 66.871094 282.851562 67.371094 C 282.171875 67.871094 281.234375 68.121094 280.039062 68.121094 C 279.539062 68.121094 279.015625 68.074219 278.476562 67.980469 C 277.933594 67.886719 277.367188 67.742188 276.773438 67.542969 L 276.773438 65.964844 C 277.335938 66.257812 277.886719 66.480469 278.429688 66.636719 C 278.980469 66.785156 279.527344 66.855469 280.070312 66.855469 C 280.789062 66.855469 281.339844 66.730469 281.726562 66.480469 C 282.109375 66.230469 282.304688 65.882812 282.304688 65.433594 C 282.304688 65.019531 282.164062 64.699219 281.882812 64.480469 C 281.609375 64.261719 281 64.050781 280.054688 63.839844 L 279.523438 63.714844 C 278.574219 63.519531 277.886719 63.214844 277.460938 62.808594 C 277.042969 62.394531 276.835938 61.824219 276.835938 61.105469 C 276.835938 60.230469 277.140625 59.558594 277.757812 59.089844 C 278.382812 58.613281 279.265625 58.371094 280.414062 58.371094 C 280.976562 58.371094 281.5 58.414062 281.992188 58.496094 C 282.492188 58.582031 282.953125 58.707031 283.382812 58.871094 Z M 284.710938 67.886719 " />
<path fill-rule="nonzero" fill="rgb(94.117647%, 95.294118%, 96.470588%)" fill-opacity="1" d="M 131.480469 86.855469 L 131.480469 87.605469 L 124.464844 87.605469 C 124.527344 88.660156 124.839844 89.460938 125.402344 90.011719 C 125.972656 90.566406 126.769531 90.839844 127.792969 90.839844 C 128.375 90.839844 128.941406 90.769531 129.496094 90.621094 C 130.046875 90.476562 130.59375 90.257812 131.136719 89.964844 L 131.136719 91.417969 C 130.582031 91.648438 130.019531 91.820312 129.449219 91.933594 C 128.875 92.058594 128.292969 92.121094 127.699219 92.121094 C 126.207031 92.121094 125.03125 91.695312 124.167969 90.839844 C 123.300781 89.976562 122.871094 88.804688 122.871094 87.324219 C 122.871094 85.804688 123.28125 84.601562 124.105469 83.714844 C 124.925781 82.820312 126.035156 82.371094 127.433594 82.371094 C 128.683594 82.371094 129.667969 82.773438 130.386719 83.574219 C 131.113281 84.378906 131.480469 85.472656 131.480469 86.855469 Z M 129.964844 86.402344 C 129.953125 85.570312 129.71875 84.910156 129.261719 84.417969 C 128.800781 83.917969 128.199219 83.667969 127.449219 83.667969 C 126.59375 83.667969 125.910156 83.910156 125.402344 84.386719 C 124.890625 84.867188 124.59375 85.542969 124.511719 86.417969 Z M 141.71875 86.277344 L 141.71875 91.886719 L 140.1875 91.886719 L 140.1875 86.324219 C 140.1875 85.449219 140.015625 84.792969 139.671875 84.355469 C 139.335938 83.917969 138.828125 83.699219 138.140625 83.699219 C 137.304688 83.699219 136.648438 83.964844 136.171875 84.496094 C 135.703125 85.019531 135.46875 85.730469 135.46875 86.636719 L 135.46875 91.886719 L 133.9375 91.886719 L 133.9375 82.589844 L 135.46875 82.589844 L 135.46875 84.027344 C 135.832031 83.476562 136.257812 83.066406 136.75 82.792969 C 137.25 82.511719 137.820312 82.371094 138.46875 82.371094 C 139.539062 82.371094 140.347656 82.707031 140.890625 83.371094 C 141.441406 84.027344 141.71875 84.996094 141.71875 86.277344 Z M 146.277344 79.949219 L 146.277344 82.589844 L 149.433594 82.589844 L 149.433594 83.777344 L 146.277344 83.777344 L 146.277344 88.824219 C 146.277344 89.585938 146.378906 90.074219 146.589844 90.292969 C 146.796875 90.503906 147.21875 90.605469 147.855469 90.605469 L 149.433594 90.605469 L 149.433594 91.886719 L 147.855469 91.886719 C 146.675781 91.886719 145.863281 91.667969 145.417969 91.230469 C 144.96875 90.792969 144.746094 89.992188 144.746094 88.824219 L 144.746094 83.777344 L 143.621094 83.777344 L 143.621094 82.589844 L 144.746094 82.589844 L 144.746094 79.949219 Z M 156.816406 84.011719 C 156.648438 83.917969 156.460938 83.851562 156.253906 83.808594 C 156.054688 83.757812 155.835938 83.730469 155.597656 83.730469 C 154.730469 83.730469 154.066406 84.011719 153.597656 84.574219 C 153.136719 85.136719 152.910156 85.945312 152.910156 86.996094 L 152.910156 91.886719 L 151.378906 91.886719 L 151.378906 82.589844 L 152.910156 82.589844 L 152.910156 84.027344 C 153.230469 83.464844 153.648438 83.050781 154.160156 82.777344 C 154.679688 82.507812 155.304688 82.371094 156.035156 82.371094 C 156.136719 82.371094 156.253906 82.378906 156.378906 82.386719 C 156.511719 82.398438 156.660156 82.417969 156.816406 82.449219 Z M 166.367188 86.855469 L 166.367188 87.605469 L 159.351562 87.605469 C 159.414062 88.660156 159.726562 89.460938 160.289062 90.011719 C 160.859375 90.566406 161.65625 90.839844 162.679688 90.839844 C 163.261719 90.839844 163.828125 90.769531 164.382812 90.621094 C 164.933594 90.476562 165.480469 90.257812 166.023438 89.964844 L 166.023438 91.417969 C 165.46875 91.648438 164.90625 91.820312 164.335938 91.933594 C 163.761719 92.058594 163.179688 92.121094 162.585938 92.121094 C 161.09375 92.121094 159.917969 91.695312 159.054688 90.839844 C 158.1875 89.976562 157.757812 88.804688 157.757812 87.324219 C 157.757812 85.804688 158.167969 84.601562 158.992188 83.714844 C 159.8125 82.820312 160.921875 82.371094 162.320312 82.371094 C 163.570312 82.371094 164.554688 82.773438 165.273438 83.574219 C 166 84.378906 166.367188 85.472656 166.367188 86.855469 Z M 164.851562 86.402344 C 164.839844 85.570312 164.605469 84.910156 164.148438 84.417969 C 163.6875 83.917969 163.085938 83.667969 162.335938 83.667969 C 161.480469 83.667969 160.796875 83.910156 160.289062 84.386719 C 159.777344 84.867188 159.480469 85.542969 159.398438 86.417969 Z M 170.359375 90.496094 L 170.359375 95.417969 L 168.828125 95.417969 L 168.828125 82.589844 L 170.359375 82.589844 L 170.359375 83.996094 C 170.679688 83.445312 171.085938 83.039062 171.578125 82.777344 C 172.066406 82.507812 172.648438 82.371094 173.328125 82.371094 C 174.460938 82.371094 175.378906 82.820312 176.078125 83.714844 C 176.785156 84.613281 177.140625 85.789062 177.140625 87.246094 C 177.140625 88.707031 176.785156 89.882812 176.078125 90.777344 C 175.378906 91.675781 174.460938 92.121094 173.328125 92.121094 C 172.648438 92.121094 172.066406 91.988281 171.578125 91.730469 C 171.085938 91.460938 170.679688 91.050781 170.359375 90.496094 Z M 175.5625 87.246094 C 175.5625 86.121094 175.328125 85.242188 174.859375 84.605469 C 174.398438 83.960938 173.765625 83.636719 172.953125 83.636719 C 172.148438 83.636719 171.515625 83.960938 171.046875 84.605469 C 170.585938 85.242188 170.359375 86.121094 170.359375 87.246094 C 170.359375 88.371094 170.585938 89.257812 171.046875 89.902344 C 171.515625 90.539062 172.148438 90.855469 172.953125 90.855469 C 173.765625 90.855469 174.398438 90.539062 174.859375 89.902344 C 175.328125 89.257812 175.5625 88.371094 175.5625 87.246094 Z M 185.054688 84.011719 C 184.886719 83.917969 184.699219 83.851562 184.492188 83.808594 C 184.292969 83.757812 184.074219 83.730469 183.835938 83.730469 C 182.96875 83.730469 182.304688 84.011719 181.835938 84.574219 C 181.375 85.136719 181.148438 85.945312 181.148438 86.996094 L 181.148438 91.886719 L 179.617188 91.886719 L 179.617188 82.589844 L 181.148438 82.589844 L 181.148438 84.027344 C 181.46875 83.464844 181.886719 83.050781 182.398438 82.777344 C 182.917969 82.507812 183.542969 82.371094 184.273438 82.371094 C 184.375 82.371094 184.492188 82.378906 184.617188 82.386719 C 184.75 82.398438 184.898438 82.417969 185.054688 82.449219 Z M 186.671875 82.589844 L 188.1875 82.589844 L 188.1875 91.886719 L 186.671875 91.886719 Z M 186.671875 78.964844 L 188.1875 78.964844 L 188.1875 80.902344 L 186.671875 80.902344 Z M 197.316406 82.871094 L 197.316406 84.308594 C 196.878906 84.089844 196.425781 83.925781 195.957031 83.808594 C 195.496094 83.695312 195.019531 83.636719 194.519531 83.636719 C 193.769531 83.636719 193.199219 83.757812 192.816406 83.996094 C 192.441406 84.226562 192.253906 84.574219 192.253906 85.042969 C 192.253906 85.398438 192.386719 85.675781 192.660156 85.871094 C 192.929688 86.070312 193.472656 86.261719 194.285156 86.449219 L 194.816406 86.558594 C 195.898438 86.800781 196.667969 87.132812 197.128906 87.558594 C 197.585938 87.976562 197.816406 88.566406 197.816406 89.324219 C 197.816406 90.191406 197.472656 90.871094 196.785156 91.371094 C 196.105469 91.871094 195.167969 92.121094 193.972656 92.121094 C 193.472656 92.121094 192.949219 92.074219 192.410156 91.980469 C 191.867188 91.886719 191.300781 91.742188 190.707031 91.542969 L 190.707031 89.964844 C 191.269531 90.257812 191.820312 90.480469 192.363281 90.636719 C 192.914062 90.785156 193.460938 90.855469 194.003906 90.855469 C 194.722656 90.855469 195.273438 90.730469 195.660156 90.480469 C 196.042969 90.230469 196.238281 89.882812 196.238281 89.433594 C 196.238281 89.019531 196.097656 88.699219 195.816406 88.480469 C 195.542969 88.261719 194.933594 88.050781 193.988281 87.839844 L 193.457031 87.714844 C 192.507812 87.519531 191.820312 87.214844 191.394531 86.808594 C 190.976562 86.394531 190.769531 85.824219 190.769531 85.105469 C 190.769531 84.230469 191.074219 83.558594 191.691406 83.089844 C 192.316406 82.613281 193.199219 82.371094 194.347656 82.371094 C 194.910156 82.371094 195.433594 82.414062 195.925781 82.496094 C 196.425781 82.582031 196.886719 82.707031 197.316406 82.871094 Z M 208.1875 86.855469 L 208.1875 87.605469 L 201.171875 87.605469 C 201.234375 88.660156 201.546875 89.460938 202.109375 90.011719 C 202.679688 90.566406 203.476562 90.839844 204.5 90.839844 C 205.082031 90.839844 205.648438 90.769531 206.203125 90.621094 C 206.753906 90.476562 207.300781 90.257812 207.84375 89.964844 L 207.84375 91.417969 C 207.289062 91.648438 206.726562 91.820312 206.15625 91.933594 C 205.582031 92.058594 205 92.121094 204.40625 92.121094 C 202.914062 92.121094 201.738281 91.695312 200.875 90.839844 C 200.007812 89.976562 199.578125 88.804688 199.578125 87.324219 C 199.578125 85.804688 199.988281 84.601562 200.8125 83.714844 C 201.632812 82.820312 202.742188 82.371094 204.140625 82.371094 C 205.390625 82.371094 206.375 82.773438 207.09375 83.574219 C 207.820312 84.378906 208.1875 85.472656 208.1875 86.855469 Z M 206.671875 86.402344 C 206.660156 85.570312 206.425781 84.910156 205.96875 84.417969 C 205.507812 83.917969 204.90625 83.667969 204.15625 83.667969 C 203.300781 83.667969 202.617188 83.910156 202.109375 84.386719 C 201.597656 84.867188 201.300781 85.542969 201.21875 86.417969 Z M 216.632812 82.871094 L 216.632812 84.308594 C 216.195312 84.089844 215.742188 83.925781 215.273438 83.808594 C 214.8125 83.695312 214.335938 83.636719 213.835938 83.636719 C 213.085938 83.636719 212.515625 83.757812 212.132812 83.996094 C 211.757812 84.226562 211.570312 84.574219 211.570312 85.042969 C 211.570312 85.398438 211.703125 85.675781 211.976562 85.871094 C 212.246094 86.070312 212.789062 86.261719 213.601562 86.449219 L 214.132812 86.558594 C 215.214844 86.800781 215.984375 87.132812 216.445312 87.558594 C 216.902344 87.976562 217.132812 88.566406 217.132812 89.324219 C 217.132812 90.191406 216.789062 90.871094 216.101562 91.371094 C 215.421875 91.871094 214.484375 92.121094 213.289062 92.121094 C 212.789062 92.121094 212.265625 92.074219 211.726562 91.980469 C 211.183594 91.886719 210.617188 91.742188 210.023438 91.542969 L 210.023438 89.964844 C 210.585938 90.257812 211.136719 90.480469 211.679688 90.636719 C 212.230469 90.785156 212.777344 90.855469 213.320312 90.855469 C 214.039062 90.855469 214.589844 90.730469 214.976562 90.480469 C 215.359375 90.230469 215.554688 89.882812 215.554688 89.433594 C 215.554688 89.019531 215.414062 88.699219 215.132812 88.480469 C 214.859375 88.261719 214.25 88.050781 213.304688 87.839844 L 212.773438 87.714844 C 211.824219 87.519531 211.136719 87.214844 210.710938 86.808594 C 210.292969 86.394531 210.085938 85.824219 210.085938 85.105469 C 210.085938 84.230469 210.390625 83.558594 211.007812 83.089844 C 211.632812 82.613281 212.515625 82.371094 213.664062 82.371094 C 214.226562 82.371094 214.75 82.414062 215.242188 82.496094 C 215.742188 82.582031 216.203125 82.707031 216.632812 82.871094 Z M 217.957031 91.886719 " />
<path fill="none" stroke-width="1.4" stroke-linecap="butt" stroke-linejoin="miter" stroke="rgb(76.862745%, 60.392157%, 13.72549%)" stroke-opacity="1" stroke-miterlimit="10" d="M 339.300781 0 L 339.300781 124 M 0 123.300781 L 340 123.300781 " />
</svg>
