<svg xmlns="http://www.w3.org/2000/svg" width="340" height="100" viewBox="0 0 340 100" role="img" aria-label="Cosa fa: Gioco di strategia fantasy asimmetrico, sviluppato come hobby">
<title>Cosa fa: Gioco di strategia fantasy asimmetrico, sviluppato come hobby</title><rect x="-34" y="-10" width="408" height="120" fill="rgb(0%, 0%, 0%)" fill-opacity="1" />
<path fill-rule="nonzero" fill="rgb(94.117647%, 95.294118%, 96.470588%)" fill-opacity="1" d="M 70.433594 30.121094 L 70.433594 26.792969 L 67.683594 26.792969 L 67.683594 25.417969 L 72.089844 25.417969 L 72.089844 30.730469 C 71.441406 31.191406 70.730469 31.539062 69.949219 31.777344 C 69.167969 32.003906 68.332031 32.121094 67.449219 32.121094 C 65.511719 32.121094 63.996094 31.558594 62.902344 30.433594 C 61.808594 29.300781 61.261719 27.722656 61.261719 25.699219 C 61.261719 23.679688 61.808594 22.101562 62.902344 20.964844 C 63.996094 19.832031 65.511719 19.261719 67.449219 19.261719 C 68.25 19.261719 69.015625 19.367188 69.746094 19.574219 C 70.472656 19.773438 71.144531 20.066406 71.761719 20.449219 L 71.761719 22.230469 C 71.144531 21.710938 70.488281 21.320312 69.792969 21.058594 C 69.09375 20.789062 68.359375 20.652344 67.589844 20.652344 C 66.066406 20.652344 64.925781 21.074219 64.167969 21.917969 C 63.40625 22.761719 63.027344 24.023438 63.027344 25.699219 C 63.027344 27.378906 63.40625 28.636719 64.167969 29.480469 C 64.925781 30.324219 66.066406 30.746094 67.589844 30.746094 C 68.183594 30.746094 68.707031 30.699219 69.167969 30.605469 C 69.636719 30.503906 70.058594 30.339844 70.433594 30.121094 Z M 75.089844 22.589844 L 76.605469 22.589844 L 76.605469 31.886719 L 75.089844 31.886719 Z M 75.089844 18.964844 L 76.605469 18.964844 L 76.605469 20.902344 L 75.089844 20.902344 Z M 83.40625 23.667969 C 82.582031 23.667969 81.929688 23.988281 81.453125 24.621094 C 80.984375 25.257812 80.75 26.132812 80.75 27.246094 C 80.75 28.363281 80.984375 29.242188 81.453125 29.886719 C 81.929688 30.523438 82.582031 30.839844 83.40625 30.839844 C 84.21875 30.839844 84.863281 30.519531 85.34375 29.871094 C 85.820312 29.226562 86.0625 28.351562 86.0625 27.246094 C 86.0625 26.144531 85.820312 25.273438 85.34375 24.636719 C 84.863281 23.992188 84.21875 23.667969 83.40625 23.667969 Z M 83.40625 22.371094 C 84.738281 22.371094 85.78125 22.804688 86.53125 23.667969 C 87.289062 24.523438 87.671875 25.714844 87.671875 27.246094 C 87.671875 28.769531 87.289062 29.960938 86.53125 30.824219 C 85.78125 31.691406 84.738281 32.121094 83.40625 32.121094 C 82.070312 32.121094 81.023438 31.691406 80.265625 30.824219 C 79.515625 29.960938 79.140625 28.769531 79.140625 27.246094 C 79.140625 25.714844 79.515625 24.523438 80.265625 23.667969 C 81.023438 22.804688 82.070312 22.371094 83.40625 22.371094 Z M 96.902344 22.949219 L 96.902344 24.371094 C 96.464844 24.132812 96.027344 23.957031 95.589844 23.839844 C 95.160156 23.726562 94.722656 23.667969 94.277344 23.667969 C 93.285156 23.667969 92.515625 23.980469 91.964844 24.605469 C 91.421875 25.230469 91.152344 26.113281 91.152344 27.246094 C 91.152344 28.382812 91.421875 29.269531 91.964844 29.902344 C 92.515625 30.527344 93.285156 30.839844 94.277344 30.839844 C 94.722656 30.839844 95.160156 30.785156 95.589844 30.667969 C 96.027344 30.542969 96.464844 30.363281 96.902344 30.121094 L 96.902344 31.527344 C 96.472656 31.726562 96.03125 31.871094 95.574219 31.964844 C 95.113281 32.066406 94.628906 32.121094 94.121094 32.121094 C 92.714844 32.121094 91.597656 31.683594 90.777344 30.808594 C 89.953125 29.925781 89.542969 28.738281 89.542969 27.246094 C 89.542969 25.726562 89.957031 24.535156 90.792969 23.667969 C 91.625 22.804688 92.765625 22.371094 94.214844 22.371094 C 94.683594 22.371094 95.140625 22.417969 95.589844 22.511719 C 96.035156 22.605469 96.472656 22.753906 96.902344 22.949219 Z M 103.15625 23.667969 C 102.332031 23.667969 101.679688 23.988281 101.203125 24.621094 C 100.734375 25.257812 100.5 26.132812 100.5 27.246094 C 100.5 28.363281 100.734375 29.242188 101.203125 29.886719 C 101.679688 30.523438 102.332031 30.839844 103.15625 30.839844 C 103.96875 30.839844 104.613281 30.519531 105.09375 29.871094 C 105.570312 29.226562 105.8125 28.351562 105.8125 27.246094 C 105.8125 26.144531 105.570312 25.273438 105.09375 24.636719 C 104.613281 23.992188 103.96875 23.667969 103.15625 23.667969 Z M 103.15625 22.371094 C 104.488281 22.371094 105.53125 22.804688 106.28125 23.667969 C 107.039062 24.523438 107.421875 25.714844 107.421875 27.246094 C 107.421875 28.769531 107.039062 29.960938 106.28125 30.824219 C 105.53125 31.691406 104.488281 32.121094 103.15625 32.121094 C 101.820312 32.121094 100.773438 31.691406 100.015625 30.824219 C 99.265625 29.960938 98.890625 28.769531 98.890625 27.246094 C 98.890625 25.714844 99.265625 24.523438 100.015625 23.667969 C 100.773438 22.804688 101.820312 22.371094 103.15625 22.371094 Z M 121.476562 23.996094 L 121.476562 18.964844 L 123.007812 18.964844 L 123.007812 31.886719 L 121.476562 31.886719 L 121.476562 30.496094 C 121.152344 31.050781 120.746094 31.460938 120.257812 31.730469 C 119.765625 31.988281 119.179688 32.121094 118.492188 32.121094 C 117.375 32.121094 116.464844 31.675781 115.757812 30.777344 C 115.046875 29.882812 114.695312 28.707031 114.695312 27.246094 C 114.695312 25.789062 115.046875 24.613281 115.757812 23.714844 C 116.464844 22.820312 117.375 22.371094 118.492188 22.371094 C 119.179688 22.371094 119.765625 22.507812 120.257812 22.777344 C 120.746094 23.039062 121.152344 23.445312 121.476562 23.996094 Z M 116.273438 27.246094 C 116.273438 28.371094 116.5 29.257812 116.960938 29.902344 C 117.429688 30.539062 118.0625 30.855469 118.867188 30.855469 C 119.679688 30.855469 120.3125 30.539062 120.773438 29.902344 C 121.242188 29.257812 121.476562 28.371094 121.476562 27.246094 C 121.476562 26.121094 121.242188 25.242188 120.773438 24.605469 C 120.3125 23.960938 119.679688 23.636719 118.867188 23.636719 C 118.0625 23.636719 117.429688 23.960938 116.960938 24.605469 C 116.5 25.242188 116.273438 26.121094 116.273438 27.246094 Z M 126.15625 22.589844 L 127.671875 22.589844 L 127.671875 31.886719 L 126.15625 31.886719 Z M 126.15625 18.964844 L 127.671875 18.964844 L 127.671875 20.902344 L 126.15625 20.902344 Z M 142.207031 22.871094 L 142.207031 24.308594 C 141.769531 24.089844 141.316406 23.925781 140.847656 23.808594 C 140.386719 23.695312 139.910156 23.636719 139.410156 23.636719 C 138.660156 23.636719 138.089844 23.757812 137.707031 23.996094 C 137.332031 24.226562 137.144531 24.574219 137.144531 25.042969 C 137.144531 25.398438 137.277344 25.675781 137.550781 25.871094 C 137.820312 26.070312 138.363281 26.261719 139.175781 26.449219 L 139.707031 26.558594 C 140.789062 26.800781 141.558594 27.132812 142.019531 27.558594 C 142.476562 27.976562 142.707031 28.566406 142.707031 29.324219 C 142.707031 30.191406 142.363281 30.871094 141.675781 31.371094 C 140.996094 31.871094 140.058594 32.121094 138.863281 32.121094 C 138.363281 32.121094 137.839844 32.074219 137.300781 31.980469 C 136.757812 31.886719 136.191406 31.742188 135.597656 31.542969 L 135.597656 29.964844 C 136.160156 30.257812 136.710938 30.480469 137.253906 30.636719 C 137.804688 30.785156 138.351562 30.855469 138.894531 30.855469 C 139.613281 30.855469 140.164062 30.730469 140.550781 30.480469 C 140.933594 30.230469 141.128906 29.882812 141.128906 29.433594 C 141.128906 29.019531 140.988281 28.699219 140.707031 28.480469 C 140.433594 28.261719 139.824219 28.050781 138.878906 27.839844 L 138.347656 27.714844 C 137.398438 27.519531 136.710938 27.214844 136.285156 26.808594 C 135.867188 26.394531 135.660156 25.824219 135.660156 25.105469 C 135.660156 24.230469 135.964844 23.558594 136.582031 23.089844 C 137.207031 22.613281 138.089844 22.371094 139.238281 22.371094 C 139.800781 22.371094 140.324219 22.414062 140.816406 22.496094 C 141.316406 22.582031 141.777344 22.707031 142.207031 22.871094 Z M 146.640625 19.949219 L 146.640625 22.589844 L 149.796875 22.589844 L 149.796875 23.777344 L 146.640625 23.777344 L 146.640625 28.824219 C 146.640625 29.585938 146.742188 30.074219 146.953125 30.292969 C 147.160156 30.503906 147.582031 30.605469 148.21875 30.605469 L 149.796875 30.605469 L 149.796875 31.886719 L 148.21875 31.886719 C 147.039062 31.886719 146.226562 31.667969 145.78125 31.230469 C 145.332031 30.792969 145.109375 29.992188 145.109375 28.824219 L 145.109375 23.777344 L 143.984375 23.777344 L 143.984375 22.589844 L 145.109375 22.589844 L 145.109375 19.949219 Z M 157.183594 24.011719 C 157.015625 23.917969 156.828125 23.851562 156.621094 23.808594 C 156.421875 23.757812 156.203125 23.730469 155.964844 23.730469 C 155.097656 23.730469 154.433594 24.011719 153.964844 24.574219 C 153.503906 25.136719 153.277344 25.945312 153.277344 26.996094 L 153.277344 31.886719 L 151.746094 31.886719 L 151.746094 22.589844 L 153.277344 22.589844 L 153.277344 24.027344 C 153.597656 23.464844 154.015625 23.050781 154.527344 22.777344 C 155.046875 22.507812 155.671875 22.371094 156.402344 22.371094 C 156.503906 22.371094 156.621094 22.378906 156.746094 22.386719 C 156.878906 22.398438 157.027344 22.417969 157.183594 22.449219 Z M 163.015625 27.214844 C 161.773438 27.214844 160.914062 27.355469 160.4375 27.636719 C 159.96875 27.917969 159.734375 28.398438 159.734375 29.074219 C 159.734375 29.617188 159.910156 30.050781 160.265625 30.371094 C 160.628906 30.695312 161.117188 30.855469 161.734375 30.855469 C 162.578125 30.855469 163.253906 30.554688 163.765625 29.949219 C 164.273438 29.347656 164.53125 28.550781 164.53125 27.558594 L 164.53125 27.214844 Z M 166.0625 26.589844 L 166.0625 31.886719 L 164.53125 31.886719 L 164.53125 30.480469 C 164.1875 31.042969 163.753906 31.460938 163.234375 31.730469 C 162.710938 31.988281 162.078125 32.121094 161.328125 32.121094 C 160.367188 32.121094 159.609375 31.855469 159.046875 31.324219 C 158.484375 30.792969 158.203125 30.082031 158.203125 29.183594 C 158.203125 28.132812 158.550781 27.339844 159.25 26.808594 C 159.957031 26.277344 161.003906 26.011719 162.390625 26.011719 L 164.53125 26.011719 L 164.53125 25.871094 C 164.53125 25.164062 164.296875 24.621094 163.828125 24.246094 C 163.367188 23.863281 162.722656 23.667969 161.890625 23.667969 C 161.359375 23.667969 160.84375 23.730469 160.34375 23.855469 C 159.84375 23.980469 159.359375 24.167969 158.890625 24.417969 L 158.890625 23.011719 C 159.453125 22.792969 159.992188 22.632812 160.515625 22.527344 C 161.046875 22.425781 161.554688 22.371094 162.046875 22.371094 C 163.390625 22.371094 164.394531 22.722656 165.0625 23.417969 C 165.726562 24.117188 166.0625 25.175781 166.0625 26.589844 Z M 170.714844 19.949219 L 170.714844 22.589844 L 173.871094 22.589844 L 173.871094 23.777344 L 170.714844 23.777344 L 170.714844 28.824219 C 170.714844 29.585938 170.816406 30.074219 171.027344 30.292969 C 171.234375 30.503906 171.65625 30.605469 172.292969 30.605469 L 173.871094 30.605469 L 173.871094 31.886719 L 172.292969 31.886719 C 171.113281 31.886719 170.300781 31.667969 169.855469 31.230469 C 169.40625 30.792969 169.183594 29.992188 169.183594 28.824219 L 169.183594 23.777344 L 168.058594 23.777344 L 168.058594 22.589844 L 169.183594 22.589844 L 169.183594 19.949219 Z M 183.816406 26.855469 L 183.816406 27.605469 L 176.800781 27.605469 C 176.863281 28.660156 177.175781 29.460938 177.738281 30.011719 C 178.308594 30.566406 179.105469 30.839844 180.128906 30.839844 C 180.710938 30.839844 181.277344 30.769531 181.832031 30.621094 C 182.382812 30.476562 182.929688 30.257812 183.472656 29.964844 L 183.472656 31.417969 C 182.917969 31.648438 182.355469 31.820312 181.785156 31.933594 C 181.210938 32.058594 180.628906 32.121094 180.035156 32.121094 C 178.542969 32.121094 177.367188 31.695312 176.503906 30.839844 C 175.636719 29.976562 175.207031 28.804688 175.207031 27.324219 C 175.207031 25.804688 175.617188 24.601562 176.441406 23.714844 C 177.261719 22.820312 178.371094 22.371094 179.769531 22.371094 C 181.019531 22.371094 182.003906 22.773438 182.722656 23.574219 C 183.449219 24.378906 183.816406 25.472656 183.816406 26.855469 Z M 182.300781 26.402344 C 182.289062 25.570312 182.054688 24.910156 181.597656 24.417969 C 181.136719 23.917969 180.535156 23.667969 179.785156 23.667969 C 178.929688 23.667969 178.246094 23.910156 177.738281 24.386719 C 177.226562 24.867188 176.929688 25.542969 176.847656 26.417969 Z M 192.449219 27.136719 C 192.449219 26.023438 192.21875 25.164062 191.761719 24.558594 C 191.300781 23.945312 190.660156 23.636719 189.839844 23.636719 C 189.027344 23.636719 188.390625 23.945312 187.933594 24.558594 C 187.472656 25.164062 187.246094 26.023438 187.246094 27.136719 C 187.246094 28.230469 187.472656 29.085938 187.933594 29.699219 C 188.390625 30.304688 189.027344 30.605469 189.839844 30.605469 C 190.660156 30.605469 191.300781 30.304688 191.761719 29.699219 C 192.21875 29.085938 192.449219 28.230469 192.449219 27.136719 Z M 193.980469 30.730469 C 193.980469 32.3125 193.625 33.488281 192.917969 34.261719 C 192.21875 35.03125 191.144531 35.417969 189.699219 35.417969 C 189.15625 35.417969 188.644531 35.375 188.167969 35.292969 C 187.699219 35.21875 187.238281 35.097656 186.792969 34.933594 L 186.792969 33.449219 C 187.238281 33.6875 187.683594 33.863281 188.121094 33.980469 C 188.558594 34.105469 189 34.167969 189.449219 34.167969 C 190.449219 34.167969 191.199219 33.902344 191.699219 33.371094 C 192.199219 32.847656 192.449219 32.0625 192.449219 31.011719 L 192.449219 30.246094 C 192.136719 30.800781 191.730469 31.210938 191.230469 31.480469 C 190.738281 31.753906 190.152344 31.886719 189.464844 31.886719 C 188.328125 31.886719 187.410156 31.457031 186.714844 30.589844 C 186.015625 29.714844 185.667969 28.566406 185.667969 27.136719 C 185.667969 25.691406 186.015625 24.535156 186.714844 23.667969 C 187.410156 22.804688 188.328125 22.371094 189.464844 22.371094 C 190.152344 22.371094 190.738281 22.507812 191.230469 22.777344 C 191.730469 23.050781 192.136719 23.457031 192.449219 23.996094 L 192.449219 22.589844 L 193.980469 22.589844 Z M 197.128906 22.589844 L 198.644531 22.589844 L 198.644531 31.886719 L 197.128906 31.886719 Z M 197.128906 18.964844 L 198.644531 18.964844 L 198.644531 20.902344 L 197.128906 20.902344 Z M 206.070312 27.214844 C 204.828125 27.214844 203.96875 27.355469 203.492188 27.636719 C 203.023438 27.917969 202.789062 28.398438 202.789062 29.074219 C 202.789062 29.617188 202.964844 30.050781 203.320312 30.371094 C 203.683594 30.695312 204.171875 30.855469 204.789062 30.855469 C 205.632812 30.855469 206.308594 30.554688 206.820312 29.949219 C 207.328125 29.347656 207.585938 28.550781 207.585938 27.558594 L 207.585938 27.214844 Z M 209.117188 26.589844 L 209.117188 31.886719 L 207.585938 31.886719 L 207.585938 30.480469 C 207.242188 31.042969 206.808594 31.460938 206.289062 31.730469 C 205.765625 31.988281 205.132812 32.121094 204.382812 32.121094 C 203.421875 32.121094 202.664062 31.855469 202.101562 31.324219 C 201.539062 30.792969 201.257812 30.082031 201.257812 29.183594 C 201.257812 28.132812 201.605469 27.339844 202.304688 26.808594 C 203.011719 26.277344 204.058594 26.011719 205.445312 26.011719 L 207.585938 26.011719 L 207.585938 25.871094 C 207.585938 25.164062 207.351562 24.621094 206.882812 24.246094 C 206.421875 23.863281 205.777344 23.667969 204.945312 23.667969 C 204.414062 23.667969 203.898438 23.730469 203.398438 23.855469 C 202.898438 23.980469 202.414062 24.167969 201.945312 24.417969 L 201.945312 23.011719 C 202.507812 22.792969 203.046875 22.632812 203.570312 22.527344 C 204.101562 22.425781 204.609375 22.371094 205.101562 22.371094 C 206.445312 22.371094 207.449219 22.722656 208.117188 23.417969 C 208.78125 24.117188 209.117188 25.175781 209.117188 26.589844 Z M 222.375 18.964844 L 222.375 20.246094 L 220.90625 20.246094 C 220.363281 20.246094 219.984375 20.355469 219.765625 20.574219 C 219.554688 20.792969 219.453125 21.191406 219.453125 21.761719 L 219.453125 22.589844 L 221.96875 22.589844 L 221.96875 23.777344 L 219.453125 23.777344 L 219.453125 31.886719 L 217.90625 31.886719 L 217.90625 23.777344 L 216.453125 23.777344 L 216.453125 22.589844 L 217.90625 22.589844 L 217.90625 21.949219 C 217.90625 20.910156 218.144531 20.152344 218.625 19.683594 C 219.113281 19.207031 219.878906 18.964844 220.921875 18.964844 Z M 227.878906 27.214844 C 226.636719 27.214844 225.777344 27.355469 225.300781 27.636719 C 224.832031 27.917969 224.597656 28.398438 224.597656 29.074219 C 224.597656 29.617188 224.773438 30.050781 225.128906 30.371094 C 225.492188 30.695312 225.980469 30.855469 226.597656 30.855469 C 227.441406 30.855469 228.117188 30.554688 228.628906 29.949219 C 229.136719 29.347656 229.394531 28.550781 229.394531 27.558594 L 229.394531 27.214844 Z M 230.925781 26.589844 L 230.925781 31.886719 L 229.394531 31.886719 L 229.394531 30.480469 C 229.050781 31.042969 228.617188 31.460938 228.097656 31.730469 C 227.574219 31.988281 226.941406 32.121094 226.191406 32.121094 C 225.230469 32.121094 224.472656 31.855469 223.910156 31.324219 C 223.347656 30.792969 223.066406 30.082031 223.066406 29.183594 C 223.066406 28.132812 223.414062 27.339844 224.113281 26.808594 C 224.820312 26.277344 225.867188 26.011719 227.253906 26.011719 L 229.394531 26.011719 L 229.394531 25.871094 C 229.394531 25.164062 229.160156 24.621094 228.691406 24.246094 C 228.230469 23.863281 227.585938 23.667969 226.753906 23.667969 C 226.222656 23.667969 225.707031 23.730469 225.207031 23.855469 C 224.707031 23.980469 224.222656 24.167969 223.753906 24.417969 L 223.753906 23.011719 C 224.316406 22.792969 224.855469 22.632812 225.378906 22.527344 C 225.910156 22.425781 226.417969 22.371094 226.910156 22.371094 C 228.253906 22.371094 229.257812 22.722656 229.925781 23.417969 C 230.589844 24.117188 230.925781 25.175781 230.925781 26.589844 Z M 241.796875 26.277344 L 241.796875 31.886719 L 240.265625 31.886719 L 240.265625 26.324219 C 240.265625 25.449219 240.09375 24.792969 239.75 24.355469 C 239.414062 23.917969 238.90625 23.699219 238.21875 23.699219 C 237.382812 23.699219 236.726562 23.964844 236.25 24.496094 C 235.78125 25.019531 235.546875 25.730469 235.546875 26.636719 L 235.546875 31.886719 L 234.015625 31.886719 L 234.015625 22.589844 L 235.546875 22.589844 L 235.546875 24.027344 C 235.910156 23.476562 236.335938 23.066406 236.828125 22.792969 C 237.328125 22.511719 237.898438 22.371094 238.546875 22.371094 C 239.617188 22.371094 240.425781 22.707031 240.96875 23.371094 C 241.519531 24.027344 241.796875 24.996094 241.796875 26.277344 Z M 246.351562 19.949219 L 246.351562 22.589844 L 249.507812 22.589844 L 249.507812 23.777344 L 246.351562 23.777344 L 246.351562 28.824219 C 246.351562 29.585938 246.453125 30.074219 246.664062 30.292969 C 246.871094 30.503906 247.292969 30.605469 247.929688 30.605469 L 249.507812 30.605469 L 249.507812 31.886719 L 247.929688 31.886719 C 246.75 31.886719 245.9375 31.667969 245.492188 31.230469 C 245.042969 30.792969 244.820312 29.992188 244.820312 28.824219 L 244.820312 23.777344 L 243.695312 23.777344 L 243.695312 22.589844 L 244.820312 22.589844 L 244.820312 19.949219 Z M 255.734375 27.214844 C 254.492188 27.214844 253.632812 27.355469 253.15625 27.636719 C 252.6875 27.917969 252.453125 28.398438 252.453125 29.074219 C 252.453125 29.617188 252.628906 30.050781 252.984375 30.371094 C 253.347656 30.695312 253.835938 30.855469 254.453125 30.855469 C 255.296875 30.855469 255.972656 30.554688 256.484375 29.949219 C 256.992188 29.347656 257.25 28.550781 257.25 27.558594 L 257.25 27.214844 Z M 258.78125 26.589844 L 258.78125 31.886719 L 257.25 31.886719 L 257.25 30.480469 C 256.90625 31.042969 256.472656 31.460938 255.953125 31.730469 C 255.429688 31.988281 254.796875 32.121094 254.046875 32.121094 C 253.085938 32.121094 252.328125 31.855469 251.765625 31.324219 C 251.203125 30.792969 250.921875 30.082031 250.921875 29.183594 C 250.921875 28.132812 251.269531 27.339844 251.96875 26.808594 C 252.675781 26.277344 253.722656 26.011719 255.109375 26.011719 L 257.25 26.011719 L 257.25 25.871094 C 257.25 25.164062 257.015625 24.621094 256.546875 24.246094 C 256.085938 23.863281 255.441406 23.667969 254.609375 23.667969 C 254.078125 23.667969 253.5625 23.730469 253.0625 23.855469 C 252.5625 23.980469 252.078125 24.167969 251.609375 24.417969 L 251.609375 23.011719 C 252.171875 22.792969 252.710938 22.632812 253.234375 22.527344 C 253.765625 22.425781 254.273438 22.371094 254.765625 22.371094 C 256.109375 22.371094 257.113281 22.722656 257.78125 23.417969 C 258.445312 24.117188 258.78125 25.175781 258.78125 26.589844 Z M 267.855469 22.871094 L 267.855469 24.308594 C 267.417969 24.089844 266.964844 23.925781 266.496094 23.808594 C 266.035156 23.695312 265.558594 23.636719 265.058594 23.636719 C 264.308594 23.636719 263.738281 23.757812 263.355469 23.996094 C 262.980469 24.226562 262.792969 24.574219 262.792969 25.042969 C 262.792969 25.398438 262.925781 25.675781 263.199219 25.871094 C 263.46875 26.070312 264.011719 26.261719 264.824219 26.449219 L 265.355469 26.558594 C 266.4375 26.800781 267.207031 27.132812 267.667969 27.558594 C 268.125 27.976562 268.355469 28.566406 268.355469 29.324219 C 268.355469 30.191406 268.011719 30.871094 267.324219 31.371094 C 266.644531 31.871094 265.707031 32.121094 264.511719 32.121094 C 264.011719 32.121094 263.488281 32.074219 262.949219 31.980469 C 262.40625 31.886719 261.839844 31.742188 261.246094 31.542969 L 261.246094 29.964844 C 261.808594 30.257812 262.359375 30.480469 262.902344 30.636719 C 263.453125 30.785156 264 30.855469 264.542969 30.855469 C 265.261719 30.855469 265.8125 30.730469 266.199219 30.480469 C 266.582031 30.230469 266.777344 29.882812 266.777344 29.433594 C 266.777344 29.019531 266.636719 28.699219 266.355469 28.480469 C 266.082031 28.261719 265.472656 28.050781 264.527344 27.839844 L 263.996094 27.714844 C 263.046875 27.519531 262.359375 27.214844 261.933594 26.808594 C 261.515625 26.394531 261.308594 25.824219 261.308594 25.105469 C 261.308594 24.230469 261.613281 23.558594 262.230469 23.089844 C 262.855469 22.613281 263.738281 22.371094 264.886719 22.371094 C 265.449219 22.371094 265.972656 22.414062 266.464844 22.496094 C 266.964844 22.582031 267.425781 22.707031 267.855469 22.871094 Z M 274.648438 32.746094 C 274.21875 33.859375 273.796875 34.582031 273.382812 34.917969 C 272.976562 35.25 272.429688 35.417969 271.742188 35.417969 L 270.523438 35.417969 L 270.523438 34.152344 L 271.414062 34.152344 C 271.839844 34.152344 272.167969 34.046875 272.398438 33.839844 C 272.625 33.640625 272.886719 33.171875 273.179688 32.433594 L 273.445312 31.730469 L 269.679688 22.589844 L 271.304688 22.589844 L 274.210938 29.855469 L 277.117188 22.589844 L 278.726562 22.589844 Z M 279.242188 31.886719 " />
<path fill-rule="nonzero" fill="rgb(94.117647%, 95.294118%, 96.470588%)" fill-opacity="1" d="M 47.328125 51.214844 C 46.085938 51.214844 45.226562 51.355469 44.75 51.636719 C 44.28125 51.917969 44.046875 52.398438 44.046875 53.074219 C 44.046875 53.617188 44.222656 54.050781 44.578125 54.371094 C 44.941406 54.695312 45.429688 54.855469 46.046875 54.855469 C 46.890625 54.855469 47.566406 54.554688 48.078125 53.949219 C 48.585938 53.347656 48.84375 52.550781 48.84375 51.558594 L 48.84375 51.214844 Z M 50.375 50.589844 L 50.375 55.886719 L 48.84375 55.886719 L 48.84375 54.480469 C 48.5 55.042969 48.066406 55.460938 47.546875 55.730469 C 47.023438 55.988281 46.390625 56.121094 45.640625 56.121094 C 44.679688 56.121094 43.921875 55.855469 43.359375 55.324219 C 42.796875 54.792969 42.515625 54.082031 42.515625 53.183594 C 42.515625 52.132812 42.863281 51.339844 43.5625 50.808594 C 44.269531 50.277344 45.316406 50.011719 46.703125 50.011719 L 48.84375 50.011719 L 48.84375 49.871094 C 48.84375 49.164062 48.609375 48.621094 48.140625 48.246094 C 47.679688 47.863281 47.035156 47.667969 46.203125 47.667969 C 45.671875 47.667969 45.15625 47.730469 44.65625 47.855469 C 44.15625 47.980469 43.671875 48.167969 43.203125 48.417969 L 43.203125 47.011719 C 43.765625 46.792969 44.304688 46.632812 44.828125 46.527344 C 45.359375 46.425781 45.867188 46.371094 46.359375 46.371094 C 47.703125 46.371094 48.707031 46.722656 49.375 47.417969 C 50.039062 48.117188 50.375 49.175781 50.375 50.589844 Z M 59.449219 46.871094 L 59.449219 48.308594 C 59.011719 48.089844 58.558594 47.925781 58.089844 47.808594 C 57.628906 47.695312 57.152344 47.636719 56.652344 47.636719 C 55.902344 47.636719 55.332031 47.757812 54.949219 47.996094 C 54.574219 48.226562 54.386719 48.574219 54.386719 49.042969 C 54.386719 49.398438 54.519531 49.675781 54.792969 49.871094 C 55.0625 50.070312 55.605469 50.261719 56.417969 50.449219 L 56.949219 50.558594 C 58.03125 50.800781 58.800781 51.132812 59.261719 51.558594 C 59.71875 51.976562 59.949219 52.566406 59.949219 53.324219 C 59.949219 54.191406 59.605469 54.871094 58.917969 55.371094 C 58.238281 55.871094 57.300781 56.121094 56.105469 56.121094 C 55.605469 56.121094 55.082031 56.074219 54.542969 55.980469 C 54 55.886719 53.433594 55.742188 52.839844 55.542969 L 52.839844 53.964844 C 53.402344 54.257812 53.953125 54.480469 54.496094 54.636719 C 55.046875 54.785156 55.59375 54.855469 56.136719 54.855469 C 56.855469 54.855469 57.40625 54.730469 57.792969 54.480469 C 58.175781 54.230469 58.371094 53.882812 58.371094 53.433594 C 58.371094 53.019531 58.230469 52.699219 57.949219 52.480469 C 57.675781 52.261719 57.066406 52.050781 56.121094 51.839844 L 55.589844 51.714844 C 54.640625 51.519531 53.953125 51.214844 53.527344 50.808594 C 53.109375 50.394531 52.902344 49.824219 52.902344 49.105469 C 52.902344 48.230469 53.207031 47.558594 53.824219 47.089844 C 54.449219 46.613281 55.332031 46.371094 56.480469 46.371094 C 57.042969 46.371094 57.566406 46.414062 58.058594 46.496094 C 58.558594 46.582031 59.019531 46.707031 59.449219 46.871094 Z M 62.382812 46.589844 L 63.898438 46.589844 L 63.898438 55.886719 L 62.382812 55.886719 Z M 62.382812 42.964844 L 63.898438 42.964844 L 63.898438 44.902344 L 62.382812 44.902344 Z M 74.339844 48.371094 C 74.714844 47.683594 75.167969 47.179688 75.699219 46.855469 C 76.230469 46.535156 76.859375 46.371094 77.589844 46.371094 C 78.546875 46.371094 79.285156 46.710938 79.808594 47.386719 C 80.339844 48.066406 80.605469 49.027344 80.605469 50.277344 L 80.605469 55.886719 L 79.074219 55.886719 L 79.074219 50.324219 C 79.074219 49.441406 78.917969 48.785156 78.605469 48.355469 C 78.292969 47.917969 77.808594 47.699219 77.152344 47.699219 C 76.359375 47.699219 75.734375 47.964844 75.277344 48.496094 C 74.816406 49.019531 74.589844 49.730469 74.589844 50.636719 L 74.589844 55.886719 L 73.058594 55.886719 L 73.058594 50.324219 C 73.058594 49.429688 72.894531 48.769531 72.574219 48.339844 C 72.261719 47.914062 71.777344 47.699219 71.121094 47.699219 C 70.339844 47.699219 69.71875 47.964844 69.261719 48.496094 C 68.800781 49.019531 68.574219 49.730469 68.574219 50.636719 L 68.574219 55.886719 L 67.042969 55.886719 L 67.042969 46.589844 L 68.574219 46.589844 L 68.574219 48.027344 C 68.925781 47.464844 69.34375 47.050781 69.824219 46.777344 C 70.3125 46.507812 70.890625 46.371094 71.558594 46.371094 C 72.234375 46.371094 72.808594 46.542969 73.277344 46.886719 C 73.753906 47.230469 74.109375 47.726562 74.339844 48.371094 Z M 90.902344 48.371094 C 91.277344 47.683594 91.730469 47.179688 92.261719 46.855469 C 92.792969 46.535156 93.421875 46.371094 94.152344 46.371094 C 95.109375 46.371094 95.847656 46.710938 96.371094 47.386719 C 96.902344 48.066406 97.167969 49.027344 97.167969 50.277344 L 97.167969 55.886719 L 95.636719 55.886719 L 95.636719 50.324219 C 95.636719 49.441406 95.480469 48.785156 95.167969 48.355469 C 94.855469 47.917969 94.371094 47.699219 93.714844 47.699219 C 92.921875 47.699219 92.296875 47.964844 91.839844 48.496094 C 91.378906 49.019531 91.152344 49.730469 91.152344 50.636719 L 91.152344 55.886719 L 89.621094 55.886719 L 89.621094 50.324219 C 89.621094 49.429688 89.457031 48.769531 89.136719 48.339844 C 88.824219 47.914062 88.339844 47.699219 87.683594 47.699219 C 86.902344 47.699219 86.28125 47.964844 85.824219 48.496094 C 85.363281 49.019531 85.136719 49.730469 85.136719 50.636719 L 85.136719 55.886719 L 83.605469 55.886719 L 83.605469 46.589844 L 85.136719 46.589844 L 85.136719 48.027344 C 85.488281 47.464844 85.90625 47.050781 86.386719 46.777344 C 86.875 46.507812 87.453125 46.371094 88.121094 46.371094 C 88.796875 46.371094 89.371094 46.542969 89.839844 46.886719 C 90.316406 47.230469 90.671875 47.726562 90.902344 48.371094 Z M 108.164062 50.855469 L 108.164062 51.605469 L 101.148438 51.605469 C 101.210938 52.660156 101.523438 53.460938 102.085938 54.011719 C 102.65625 54.566406 103.453125 54.839844 104.476562 54.839844 C 105.058594 54.839844 105.625 54.769531 106.179688 54.621094 C 106.730469 54.476562 107.277344 54.257812 107.820312 53.964844 L 107.820312 55.417969 C 107.265625 55.648438 106.703125 55.820312 106.132812 55.933594 C 105.558594 56.058594 104.976562 56.121094 104.382812 56.121094 C 102.890625 56.121094 101.714844 55.695312 100.851562 54.839844 C 99.984375 53.976562 99.554688 52.804688 99.554688 51.324219 C 99.554688 49.804688 99.964844 48.601562 100.789062 47.714844 C 101.609375 46.820312 102.71875 46.371094 104.117188 46.371094 C 105.367188 46.371094 106.351562 46.773438 107.070312 47.574219 C 107.796875 48.378906 108.164062 49.472656 108.164062 50.855469 Z M 106.648438 50.402344 C 106.636719 49.570312 106.402344 48.910156 105.945312 48.417969 C 105.484375 47.917969 104.882812 47.667969 104.132812 47.667969 C 103.277344 47.667969 102.59375 47.910156 102.085938 48.386719 C 101.574219 48.867188 101.277344 49.542969 101.195312 50.417969 Z M 112.1875 43.949219 L 112.1875 46.589844 L 115.34375 46.589844 L 115.34375 47.777344 L 112.1875 47.777344 L 112.1875 52.824219 C 112.1875 53.585938 112.289062 54.074219 112.5 54.292969 C 112.707031 54.503906 113.128906 54.605469 113.765625 54.605469 L 115.34375 54.605469 L 115.34375 55.886719 L 113.765625 55.886719 C 112.585938 55.886719 111.773438 55.667969 111.328125 55.230469 C 110.878906 54.792969 110.65625 53.992188 110.65625 52.824219 L 110.65625 47.777344 L 109.53125 47.777344 L 109.53125 46.589844 L 110.65625 46.589844 L 110.65625 43.949219 Z M 122.726562 48.011719 C 122.558594 47.917969 122.371094 47.851562 122.164062 47.808594 C 121.964844 47.757812 121.746094 47.730469 121.507812 47.730469 C 120.640625 47.730469 119.976562 48.011719 119.507812 48.574219 C 119.046875 49.136719 118.820312 49.945312 118.820312 50.996094 L 118.820312 55.886719 L 117.289062 55.886719 L 117.289062 46.589844 L 118.820312 46.589844 L 118.820312 48.027344 C 119.140625 47.464844 119.558594 47.050781 120.070312 46.777344 C 120.589844 46.507812 121.214844 46.371094 121.945312 46.371094 C 122.046875 46.371094 122.164062 46.378906 122.289062 46.386719 C 122.421875 46.398438 122.570312 46.417969 122.726562 46.449219 Z M 124.339844 46.589844 L 125.855469 46.589844 L 125.855469 55.886719 L 124.339844 55.886719 Z M 124.339844 42.964844 L 125.855469 42.964844 L 125.855469 44.902344 L 124.339844 44.902344 Z M 135.75 46.949219 L 135.75 48.371094 C 135.3125 48.132812 134.875 47.957031 134.4375 47.839844 C 134.007812 47.726562 133.570312 47.667969 133.125 47.667969 C 132.132812 47.667969 131.363281 47.980469 130.8125 48.605469 C 130.269531 49.230469 130 50.113281 130 51.246094 C 130 52.382812 130.269531 53.269531 130.8125 53.902344 C 131.363281 54.527344 132.132812 54.839844 133.125 54.839844 C 133.570312 54.839844 134.007812 54.785156 134.4375 54.667969 C 134.875 54.542969 135.3125 54.363281 135.75 54.121094 L 135.75 55.527344 C 135.320312 55.726562 134.878906 55.871094 134.421875 55.964844 C 133.960938 56.066406 133.476562 56.121094 132.96875 56.121094 C 131.5625 56.121094 130.445312 55.683594 129.625 54.808594 C 128.800781 53.925781 128.390625 52.738281 128.390625 51.246094 C 128.390625 49.726562 128.804688 48.535156 129.640625 47.667969 C 130.472656 46.804688 131.613281 46.371094 133.0625 46.371094 C 133.53125 46.371094 133.988281 46.417969 134.4375 46.511719 C 134.882812 46.605469 135.320312 46.753906 135.75 46.949219 Z M 142.003906 47.667969 C 141.179688 47.667969 140.527344 47.988281 140.050781 48.621094 C 139.582031 49.257812 139.347656 50.132812 139.347656 51.246094 C 139.347656 52.363281 139.582031 53.242188 140.050781 53.886719 C 140.527344 54.523438 141.179688 54.839844 142.003906 54.839844 C 142.816406 54.839844 143.460938 54.519531 143.941406 53.871094 C 144.417969 53.226562 144.660156 52.351562 144.660156 51.246094 C 144.660156 50.144531 144.417969 49.273438 143.941406 48.636719 C 143.460938 47.992188 142.816406 47.667969 142.003906 47.667969 Z M 142.003906 46.371094 C 143.335938 46.371094 144.378906 46.804688 145.128906 47.667969 C 145.886719 48.523438 146.269531 49.714844 146.269531 51.246094 C 146.269531 52.769531 145.886719 53.960938 145.128906 54.824219 C 144.378906 55.691406 143.335938 56.121094 142.003906 56.121094 C 140.667969 56.121094 139.621094 55.691406 138.863281 54.824219 C 138.113281 53.960938 137.738281 52.769531 137.738281 51.246094 C 137.738281 49.714844 138.113281 48.523438 138.863281 47.667969 C 139.621094 46.804688 140.667969 46.371094 142.003906 46.371094 Z M 149.203125 53.777344 L 150.953125 53.777344 L 150.953125 55.199219 L 149.578125 57.855469 L 148.515625 57.855469 L 149.203125 55.199219 Z M 165.539062 46.871094 L 165.539062 48.308594 C 165.101562 48.089844 164.648438 47.925781 164.179688 47.808594 C 163.71875 47.695312 163.242188 47.636719 162.742188 47.636719 C 161.992188 47.636719 161.421875 47.757812 161.039062 47.996094 C 160.664062 48.226562 160.476562 48.574219 160.476562 49.042969 C 160.476562 49.398438 160.609375 49.675781 160.882812 49.871094 C 161.152344 50.070312 161.695312 50.261719 162.507812 50.449219 L 163.039062 50.558594 C 164.121094 50.800781 164.890625 51.132812 165.351562 51.558594 C 165.808594 51.976562 166.039062 52.566406 166.039062 53.324219 C 166.039062 54.191406 165.695312 54.871094 165.007812 55.371094 C 164.328125 55.871094 163.390625 56.121094 162.195312 56.121094 C 161.695312 56.121094 161.171875 56.074219 160.632812 55.980469 C 160.089844 55.886719 159.523438 55.742188 158.929688 55.542969 L 158.929688 53.964844 C 159.492188 54.257812 160.042969 54.480469 160.585938 54.636719 C 161.136719 54.785156 161.683594 54.855469 162.226562 54.855469 C 162.945312 54.855469 163.496094 54.730469 163.882812 54.480469 C 164.265625 54.230469 164.460938 53.882812 164.460938 53.433594 C 164.460938 53.019531 164.320312 52.699219 164.039062 52.480469 C 163.765625 52.261719 163.15625 52.050781 162.210938 51.839844 L 161.679688 51.714844 C 160.730469 51.519531 160.042969 51.214844 159.617188 50.808594 C 159.199219 50.394531 158.992188 49.824219 158.992188 49.105469 C 158.992188 48.230469 159.296875 47.558594 159.914062 47.089844 C 160.539062 46.613281 161.421875 46.371094 162.570312 46.371094 C 163.132812 46.371094 163.65625 46.414062 164.148438 46.496094 C 164.648438 46.582031 165.109375 46.707031 165.539062 46.871094 Z M 167.367188 46.589844 L 168.992188 46.589844 L 171.898438 54.386719 L 174.804688 46.589844 L 176.414062 46.589844 L 172.929688 55.886719 L 170.867188 55.886719 Z M 178.535156 46.589844 L 180.050781 46.589844 L 180.050781 55.886719 L 178.535156 55.886719 Z M 178.535156 42.964844 L 180.050781 42.964844 L 180.050781 44.902344 L 178.535156 44.902344 Z M 183.257812 42.964844 L 184.773438 42.964844 L 184.773438 55.886719 L 183.257812 55.886719 Z M 187.8125 52.214844 L 187.8125 46.589844 L 189.34375 46.589844 L 189.34375 52.152344 C 189.34375 53.039062 189.515625 53.699219 189.859375 54.136719 C 190.203125 54.574219 190.71875 54.792969 191.40625 54.792969 C 192.226562 54.792969 192.878906 54.535156 193.359375 54.011719 C 193.835938 53.480469 194.078125 52.761719 194.078125 51.855469 L 194.078125 46.589844 L 195.609375 46.589844 L 195.609375 55.886719 L 194.078125 55.886719 L 194.078125 54.464844 C 193.703125 55.027344 193.269531 55.445312 192.78125 55.714844 C 192.289062 55.984375 191.722656 56.121094 191.078125 56.121094 C 190.015625 56.121094 189.203125 55.792969 188.640625 55.136719 C 188.085938 54.472656 187.8125 53.496094 187.8125 52.214844 Z M 191.65625 46.371094 Z M 200.226562 54.496094 L 200.226562 59.417969 L 198.695312 59.417969 L 198.695312 46.589844 L 200.226562 46.589844 L 200.226562 47.996094 C 200.546875 47.445312 200.953125 47.039062 201.445312 46.777344 C 201.933594 46.507812 202.515625 46.371094 203.195312 46.371094 C 204.328125 46.371094 205.246094 46.820312 205.945312 47.714844 C 206.652344 48.613281 207.007812 49.789062 207.007812 51.246094 C 207.007812 52.707031 206.652344 53.882812 205.945312 54.777344 C 205.246094 55.675781 204.328125 56.121094 203.195312 56.121094 C 202.515625 56.121094 201.933594 55.988281 201.445312 55.730469 C 200.953125 55.460938 200.546875 55.050781 200.226562 54.496094 Z M 205.429688 51.246094 C 205.429688 50.121094 205.195312 49.242188 204.726562 48.605469 C 204.265625 47.960938 203.632812 47.636719 202.820312 47.636719 C 202.015625 47.636719 201.382812 47.960938 200.914062 48.605469 C 200.453125 49.242188 200.226562 50.121094 200.226562 51.246094 C 200.226562 52.371094 200.453125 53.257812 200.914062 53.902344 C 201.382812 54.539062 202.015625 54.855469 202.820312 54.855469 C 203.632812 54.855469 204.265625 54.539062 204.726562 53.902344 C 205.195312 53.257812 205.429688 52.371094 205.429688 51.246094 Z M 211.015625 54.496094 L 211.015625 59.417969 L 209.484375 59.417969 L 209.484375 46.589844 L 211.015625 46.589844 L 211.015625 47.996094 C 211.335938 47.445312 211.742188 47.039062 212.234375 46.777344 C 212.722656 46.507812 213.304688 46.371094 213.984375 46.371094 C 215.117188 46.371094 216.035156 46.820312 216.734375 47.714844 C 217.441406 48.613281 217.796875 49.789062 217.796875 51.246094 C 217.796875 52.707031 217.441406 53.882812 216.734375 54.777344 C 216.035156 55.675781 215.117188 56.121094 213.984375 56.121094 C 213.304688 56.121094 212.722656 55.988281 212.234375 55.730469 C 211.742188 55.460938 211.335938 55.050781 211.015625 54.496094 Z M 216.21875 51.246094 C 216.21875 50.121094 215.984375 49.242188 215.515625 48.605469 C 215.054688 47.960938 214.421875 47.636719 213.609375 47.636719 C 212.804688 47.636719 212.171875 47.960938 211.703125 48.605469 C 211.242188 49.242188 211.015625 50.121094 211.015625 51.246094 C 211.015625 52.371094 211.242188 53.257812 211.703125 53.902344 C 212.171875 54.539062 212.804688 54.855469 213.609375 54.855469 C 214.421875 54.855469 215.054688 54.539062 215.515625 53.902344 C 215.984375 53.257812 216.21875 52.371094 216.21875 51.246094 Z M 224.558594 51.214844 C 223.316406 51.214844 222.457031 51.355469 221.980469 51.636719 C 221.511719 51.917969 221.277344 52.398438 221.277344 53.074219 C 221.277344 53.617188 221.453125 54.050781 221.808594 54.371094 C 222.171875 54.695312 222.660156 54.855469 223.277344 54.855469 C 224.121094 54.855469 224.796875 54.554688 225.308594 53.949219 C 225.816406 53.347656 226.074219 52.550781 226.074219 51.558594 L 226.074219 51.214844 Z M 227.605469 50.589844 L 227.605469 55.886719 L 226.074219 55.886719 L 226.074219 54.480469 C 225.730469 55.042969 225.296875 55.460938 224.777344 55.730469 C 224.253906 55.988281 223.621094 56.121094 222.871094 56.121094 C 221.910156 56.121094 221.152344 55.855469 220.589844 55.324219 C 220.027344 54.792969 219.746094 54.082031 219.746094 53.183594 C 219.746094 52.132812 220.09375 51.339844 220.792969 50.808594 C 221.5 50.277344 222.546875 50.011719 223.933594 50.011719 L 226.074219 50.011719 L 226.074219 49.871094 C 226.074219 49.164062 225.839844 48.621094 225.371094 48.246094 C 224.910156 47.863281 224.265625 47.667969 223.433594 47.667969 C 222.902344 47.667969 222.386719 47.730469 221.886719 47.855469 C 221.386719 47.980469 220.902344 48.167969 220.433594 48.417969 L 220.433594 47.011719 C 220.996094 46.792969 221.535156 46.632812 222.058594 46.527344 C 222.589844 46.425781 223.097656 46.371094 223.589844 46.371094 C 224.933594 46.371094 225.9375 46.722656 226.605469 47.417969 C 227.269531 48.117188 227.605469 49.175781 227.605469 50.589844 Z M 232.257812 43.949219 L 232.257812 46.589844 L 235.414062 46.589844 L 235.414062 47.777344 L 232.257812 47.777344 L 232.257812 52.824219 C 232.257812 53.585938 232.359375 54.074219 232.570312 54.292969 C 232.777344 54.503906 233.199219 54.605469 233.835938 54.605469 L 235.414062 54.605469 L 235.414062 55.886719 L 233.835938 55.886719 C 232.65625 55.886719 231.84375 55.667969 231.398438 55.230469 C 230.949219 54.792969 230.726562 53.992188 230.726562 52.824219 L 230.726562 47.777344 L 229.601562 47.777344 L 229.601562 46.589844 L 230.726562 46.589844 L 230.726562 43.949219 Z M 241.015625 47.667969 C 240.191406 47.667969 239.539062 47.988281 239.0625 48.621094 C 238.59375 49.257812 238.359375 50.132812 238.359375 51.246094 C 238.359375 52.363281 238.59375 53.242188 239.0625 53.886719 C 239.539062 54.523438 240.191406 54.839844 241.015625 54.839844 C 241.828125 54.839844 242.472656 54.519531 242.953125 53.871094 C 243.429688 53.226562 243.671875 52.351562 243.671875 51.246094 C 243.671875 50.144531 243.429688 49.273438 242.953125 48.636719 C 242.472656 47.992188 241.828125 47.667969 241.015625 47.667969 Z M 241.015625 46.371094 C 242.347656 46.371094 243.390625 46.804688 244.140625 47.667969 C 244.898438 48.523438 245.28125 49.714844 245.28125 51.246094 C 245.28125 52.769531 244.898438 53.960938 244.140625 54.824219 C 243.390625 55.691406 242.347656 56.121094 241.015625 56.121094 C 239.679688 56.121094 238.632812 55.691406 237.875 54.824219 C 237.125 53.960938 236.75 52.769531 236.75 51.246094 C 236.75 49.714844 237.125 48.523438 237.875 47.667969 C 238.632812 46.804688 239.679688 46.371094 241.015625 46.371094 Z M 259.914062 46.949219 L 259.914062 48.371094 C 259.476562 48.132812 259.039062 47.957031 258.601562 47.839844 C 258.171875 47.726562 257.734375 47.667969 257.289062 47.667969 C 256.296875 47.667969 255.527344 47.980469 254.976562 48.605469 C 254.433594 49.230469 254.164062 50.113281 254.164062 51.246094 C 254.164062 52.382812 254.433594 53.269531 254.976562 53.902344 C 255.527344 54.527344 256.296875 54.839844 257.289062 54.839844 C 257.734375 54.839844 258.171875 54.785156 258.601562 54.667969 C 259.039062 54.542969 259.476562 54.363281 259.914062 54.121094 L 259.914062 55.527344 C 259.484375 55.726562 259.042969 55.871094 258.585938 55.964844 C 258.125 56.066406 257.640625 56.121094 257.132812 56.121094 C 255.726562 56.121094 254.609375 55.683594 253.789062 54.808594 C 252.964844 53.925781 252.554688 52.738281 252.554688 51.246094 C 252.554688 49.726562 252.96875 48.535156 253.804688 47.667969 C 254.636719 46.804688 255.777344 46.371094 257.226562 46.371094 C 257.695312 46.371094 258.152344 46.417969 258.601562 46.511719 C 259.046875 46.605469 259.484375 46.753906 259.914062 46.949219 Z M 266.167969 47.667969 C 265.34375 47.667969 264.691406 47.988281 264.214844 48.621094 C 263.746094 49.257812 263.511719 50.132812 263.511719 51.246094 C 263.511719 52.363281 263.746094 53.242188 264.214844 53.886719 C 264.691406 54.523438 265.34375 54.839844 266.167969 54.839844 C 266.980469 54.839844 267.625 54.519531 268.105469 53.871094 C 268.582031 53.226562 268.824219 52.351562 268.824219 51.246094 C 268.824219 50.144531 268.582031 49.273438 268.105469 48.636719 C 267.625 47.992188 266.980469 47.667969 266.167969 47.667969 Z M 266.167969 46.371094 C 267.5 46.371094 268.542969 46.804688 269.292969 47.667969 C 270.050781 48.523438 270.433594 49.714844 270.433594 51.246094 C 270.433594 52.769531 270.050781 53.960938 269.292969 54.824219 C 268.542969 55.691406 267.5 56.121094 266.167969 56.121094 C 264.832031 56.121094 263.785156 55.691406 263.027344 54.824219 C 262.277344 53.960938 261.902344 52.769531 261.902344 51.246094 C 261.902344 49.714844 262.277344 48.523438 263.027344 47.667969 C 263.785156 46.804688 264.832031 46.371094 266.167969 46.371094 Z M 280.210938 48.371094 C 280.585938 47.683594 281.039062 47.179688 281.570312 46.855469 C 282.101562 46.535156 282.730469 46.371094 283.460938 46.371094 C 284.417969 46.371094 285.15625 46.710938 285.679688 47.386719 C 286.210938 48.066406 286.476562 49.027344 286.476562 50.277344 L 286.476562 55.886719 L 284.945312 55.886719 L 284.945312 50.324219 C 284.945312 49.441406 284.789062 48.785156 284.476562 48.355469 C 284.164062 47.917969 283.679688 47.699219 283.023438 47.699219 C 282.230469 47.699219 281.605469 47.964844 281.148438 48.496094 C 280.6875 49.019531 280.460938 49.730469 280.460938 50.636719 L 280.460938 55.886719 L 278.929688 55.886719 L 278.929688 50.324219 C 278.929688 49.429688 278.765625 48.769531 278.445312 48.339844 C 278.132812 47.914062 277.648438 47.699219 276.992188 47.699219 C 276.210938 47.699219 275.589844 47.964844 275.132812 48.496094 C 274.671875 49.019531 274.445312 49.730469 274.445312 50.636719 L 274.445312 55.886719 L 272.914062 55.886719 L 272.914062 46.589844 L 274.445312 46.589844 L 274.445312 48.027344 C 274.796875 47.464844 275.214844 47.050781 275.695312 46.777344 C 276.183594 46.507812 276.761719 46.371094 277.429688 46.371094 C 278.105469 46.371094 278.679688 46.542969 279.148438 46.886719 C 279.625 47.230469 279.980469 47.726562 280.210938 48.371094 Z M 297.472656 50.855469 L 297.472656 51.605469 L 290.457031 51.605469 C 290.519531 52.660156 290.832031 53.460938 291.394531 54.011719 C 291.964844 54.566406 292.761719 54.839844 293.785156 54.839844 C 294.367188 54.839844 294.933594 54.769531 295.488281 54.621094 C 296.039062 54.476562 296.585938 54.257812 297.128906 53.964844 L 297.128906 55.417969 C 296.574219 55.648438 296.011719 55.820312 295.441406 55.933594 C 294.867188 56.058594 294.285156 56.121094 293.691406 56.121094 C 292.199219 56.121094 291.023438 55.695312 290.160156 54.839844 C 289.292969 53.976562 288.863281 52.804688 288.863281 51.324219 C 288.863281 49.804688 289.273438 48.601562 290.097656 47.714844 C 290.917969 46.820312 292.027344 46.371094 293.425781 46.371094 C 294.675781 46.371094 295.660156 46.773438 296.378906 47.574219 C 297.105469 48.378906 297.472656 49.472656 297.472656 50.855469 Z M 295.957031 50.402344 C 295.945312 49.570312 295.710938 48.910156 295.253906 48.417969 C 294.792969 47.917969 294.191406 47.667969 293.441406 47.667969 C 292.585938 47.667969 291.902344 47.910156 291.394531 48.386719 C 290.882812 48.867188 290.585938 49.542969 290.503906 50.417969 Z M 298.382812 55.886719 " />
<path fill-rule="nonzero" fill="rgb(94.117647%, 95.294118%, 96.470588%)" fill-opacity="1" d="M 152.398438 74.277344 L 152.398438 79.886719 L 150.867188 79.886719 L 150.867188 74.324219 C 150.867188 73.449219 150.695312 72.792969 150.351562 72.355469 C 150.015625 71.917969 149.507812 71.699219 148.820312 71.699219 C 147.984375 71.699219 147.328125 71.964844 146.851562 72.496094 C 146.382812 73.019531 146.148438 73.730469 146.148438 74.636719 L 146.148438 79.886719 L 144.617188 79.886719 L 144.617188 66.964844 L 146.148438 66.964844 L 146.148438 72.027344 C 146.511719 71.476562 146.9375 71.066406 147.429688 70.792969 C 147.929688 70.511719 148.5 70.371094 149.148438 70.371094 C 150.21875 70.371094 151.027344 70.707031 151.570312 71.371094 C 152.121094 72.027344 152.398438 72.996094 152.398438 74.277344 Z M 159.046875 71.667969 C 158.222656 71.667969 157.570312 71.988281 157.09375 72.621094 C 156.625 73.257812 156.390625 74.132812 156.390625 75.246094 C 156.390625 76.363281 156.625 77.242188 157.09375 77.886719 C 157.570312 78.523438 158.222656 78.839844 159.046875 78.839844 C 159.859375 78.839844 160.503906 78.519531 160.984375 77.871094 C 161.460938 77.226562 161.703125 76.351562 161.703125 75.246094 C 161.703125 74.144531 161.460938 73.273438 160.984375 72.636719 C 160.503906 71.992188 159.859375 71.667969 159.046875 71.667969 Z M 159.046875 70.371094 C 160.378906 70.371094 161.421875 70.804688 162.171875 71.667969 C 162.929688 72.523438 163.3125 73.714844 163.3125 75.246094 C 163.3125 76.769531 162.929688 77.960938 162.171875 78.824219 C 161.421875 79.691406 160.378906 80.121094 159.046875 80.121094 C 157.710938 80.121094 156.664062 79.691406 155.90625 78.824219 C 155.15625 77.960938 154.78125 76.769531 154.78125 75.246094 C 154.78125 73.714844 155.15625 72.523438 155.90625 71.667969 C 156.664062 70.804688 157.710938 70.371094 159.046875 70.371094 Z M 172.527344 75.246094 C 172.527344 74.121094 172.292969 73.242188 171.824219 72.605469 C 171.363281 71.960938 170.730469 71.636719 169.917969 71.636719 C 169.113281 71.636719 168.480469 71.960938 168.011719 72.605469 C 167.550781 73.242188 167.324219 74.121094 167.324219 75.246094 C 167.324219 76.371094 167.550781 77.257812 168.011719 77.902344 C 168.480469 78.539062 169.113281 78.855469 169.917969 78.855469 C 170.730469 78.855469 171.363281 78.539062 171.824219 77.902344 C 172.292969 77.257812 172.527344 76.371094 172.527344 75.246094 Z M 167.324219 71.996094 C 167.644531 71.445312 168.050781 71.039062 168.542969 70.777344 C 169.03125 70.507812 169.613281 70.371094 170.292969 70.371094 C 171.425781 70.371094 172.34375 70.820312 173.042969 71.714844 C 173.75 72.613281 174.105469 73.789062 174.105469 75.246094 C 174.105469 76.707031 173.75 77.882812 173.042969 78.777344 C 172.34375 79.675781 171.425781 80.121094 170.292969 80.121094 C 169.613281 80.121094 169.03125 79.988281 168.542969 79.730469 C 168.050781 79.460938 167.644531 79.050781 167.324219 78.496094 L 167.324219 79.886719 L 165.792969 79.886719 L 165.792969 66.964844 L 167.324219 66.964844 Z M 183.316406 75.246094 C 183.316406 74.121094 183.082031 73.242188 182.613281 72.605469 C 182.152344 71.960938 181.519531 71.636719 180.707031 71.636719 C 179.902344 71.636719 179.269531 71.960938 178.800781 72.605469 C 178.339844 73.242188 178.113281 74.121094 178.113281 75.246094 C 178.113281 76.371094 178.339844 77.257812 178.800781 77.902344 C 179.269531 78.539062 179.902344 78.855469 180.707031 78.855469 C 181.519531 78.855469 182.152344 78.539062 182.613281 77.902344 C 183.082031 77.257812 183.316406 76.371094 183.316406 75.246094 Z M 178.113281 71.996094 C 178.433594 71.445312 178.839844 71.039062 179.332031 70.777344 C 179.820312 70.507812 180.402344 70.371094 181.082031 70.371094 C 182.214844 70.371094 183.132812 70.820312 183.832031 71.714844 C 184.539062 72.613281 184.894531 73.789062 184.894531 75.246094 C 184.894531 76.707031 184.539062 77.882812 183.832031 78.777344 C 183.132812 79.675781 182.214844 80.121094 181.082031 80.121094 C 180.402344 80.121094 179.820312 79.988281 179.332031 79.730469 C 178.839844 79.460938 178.433594 79.050781 178.113281 78.496094 L 178.113281 79.886719 L 176.582031 79.886719 L 176.582031 66.964844 L 178.113281 66.964844 Z M 191.296875 80.746094 C 190.867188 81.859375 190.445312 82.582031 190.03125 82.917969 C 189.625 83.25 189.078125 83.417969 188.390625 83.417969 L 187.171875 83.417969 L 187.171875 82.152344 L 188.0625 82.152344 C 188.488281 82.152344 188.816406 82.046875 189.046875 81.839844 C 189.273438 81.640625 189.535156 81.171875 189.828125 80.433594 L 190.09375 79.730469 L 186.328125 70.589844 L 187.953125 70.589844 L 190.859375 77.855469 L 193.765625 70.589844 L 195.375 70.589844 Z M 195.886719 79.886719 " />
<path fill="none" stroke-width="1.4" stroke-linecap="butt" stroke-linejoin="miter" stroke="rgb(76.862745%, 60.392157%, 13.72549%)" stroke-opacity="1" stroke-miterlimit="10" d="M 339.300781 0 L 339.300781 100 M 0 99.300781 L 340 99.300781 " />
</svg>
